<?xml version="1.0" encoding="UTF-8"?>
<!-- Generated by jsxcad -->
<!DOCTYPE svg PUBLIC "-//W3C//DTD SVG 1.1 Tiny//EN" "http://www.w3.org/Graphics/SVG/1.1/DTD/svg11-tiny.dtd">
<svg viewBox="-250 -250 500 500" width="500" height="500" xmlns="http://www.w3.org/2000/svg"><path d="M-24.733760408802464,-102.04765425039206L-23.177263592585955,-86.25512468253302L-22.885422282732087,-98.27846831438418zM-27.870532970305323,-100.3764072017239L-26.35194207009076,-84.25966334465802L-26.011743894547486,-96.61249828154921zM-30.90543552177979,-98.63027015868667L-29.42642509238546,-82.15694175011129L-29.036272712749316,-94.87137228381475zM-11.391885068409042,-108.05705350782061L-9.700760533180665,-93.03474893662346L-9.585857222391972,-104.26456483765156zM-21.77505990338078,-91.91920716506358L-19.66773942954066,-99.89415631989036L-21.505517421878128,-103.66885064921573zM-18.42206508627585,-93.68598776816427L-16.370486444892816,-101.44739053498506L-18.197643268308433,-105.22780577136147zM-15.002768735277161,-95.32656223402151L-13.005851531327528,-102.91056007843032L-14.82240450845537,-106.6969105775684zM-34.29692156709405,-83.71629639573787L-31.947470608510546,-93.0842983990058L-33.82684725608914,-96.8384525509262z" style="fill:rgb(247,158,158)"/><path d="M-24.733760408802464,-102.04765425039206L-21.77505990338078,-91.91920716506358L-23.210295369475702,-102.850176882377zM-23.210295369475702,-102.850176882377L-21.77505990338078,-91.91920716506358L-21.505517421878128,-103.66885064921573z" style="fill:rgb(83,212,212)"/><path d="M-39.28349280607261,-93.22654532409884L-37.942460432076956,-75.27753041257567L-37.3844821748746,-89.48107044480417z" style="fill:rgb(247,158,158)"/><path d="M-21.505517421878128,-103.66885064921573L-18.42206508627585,-93.68598776816427L-18.855203275960402,-104.94159230469535zM-27.481871634679763,-100.60001960124023L-25.050228767398746,-90.03226984925112L-24.733760408802464,-102.04765425039206zM-18.855203275960402,-104.94159230469535L-18.42206508627585,-93.68598776816427L-18.197643268308433,-105.22780577136147zM-27.870532970305323,-100.3764072017239L-25.050228767398746,-90.03226984925112L-27.481871634679763,-100.60001960124023z" style="fill:rgb(83,212,212)"/><path d="M-8.012339297140956,-98.20670750226938L-6.122260783333616,-105.5309980573306L-7.917821368311396,-109.32978855304788z" style="fill:rgb(247,158,158)"/><path d="M-18.197643268308433,-105.22780577136147L-15.002768735277161,-95.32656223402151L-14.82240450845537,-106.6969105775684zM-30.90543552177979,-98.63027015868667L-28.236262663847363,-88.03157580160196L-27.870532970305323,-100.3764072017239zM-14.82240450845537,-106.6969105775684L-11.528894200290939,-96.83523278479257L-14.430906076137822,-106.86731147747943z" style="fill:rgb(83,212,212)"/><path d="M-37.15022347678822,-81.41620933387429L-34.73360075126357,-91.28802160440361L-36.622932705675574,-95.03769430855213zM-0.8889443383971419,-111.58700688268452L0.8965204836220003,-96.69877467824747L0.8860058110885646,-107.77520995139432z" style="fill:rgb(247,158,158)"/><path d="M-31.655845791751034,-98.1985166497608L-31.32209503074201,-85.92389239031782L-30.90543552177979,-98.63027015868667zM-14.430906076137822,-106.86731147747943L-11.528894200290939,-96.83523278479257L-11.391885068409042,-108.05705350782061zM-33.82684725608914,-96.8384525509262L-31.32209503074201,-85.92389239031782L-31.655845791751034,-98.1985166497608z" style="fill:rgb(83,212,212)"/><path d="M-4.465156688572056,-99.43606780253467L-2.627465687243496,-106.70302714001883L-4.412655777775143,-110.50826397216463z" style="fill:rgb(247,158,158)"/><path d="M-11.391885068409042,-108.05705350782061L-8.012339297140956,-98.20670750226938L-9.951928380555263,-108.62078269722866zM-35.71837191704476,-95.65346772537657L-34.29692156709405,-83.71629639573787L-33.82684725608914,-96.8384525509262zM-9.951928380555263,-108.62078269722866L-8.012339297140956,-98.20670750226938L-7.917821368311396,-109.32978855304788zM-36.622932705675574,-95.03769430855213L-34.29692156709405,-83.71629639573787L-35.71837191704476,-95.65346772537657z" style="fill:rgb(83,212,212)"/><path d="M2.640773196112448,-112.51857945254528L4.458065110327505,-97.6239761778764L4.405729854075014,-108.70006685077655z" style="fill:rgb(247,158,158)"/><path d="M-7.917821368311396,-109.32978855304788L-4.465156688572056,-99.43606780253467L-5.432979535096795,-110.19590063327901zM-39.28349280607261,-93.22654532409884L-37.15022347678822,-81.41620933387429L-36.622932705675574,-95.03769430855213zM-5.432979535096795,-110.19590063327901L-4.465156688572056,-99.43606780253467L-4.412655777775143,-110.50826397216463z" style="fill:rgb(83,212,212)"/><path d="M-42.45173318942724,-76.56975973418596L-39.89107407984964,-87.64755131894037L-41.79950112357816,-91.38914153846157zM-19.66773942954066,-99.89415631989036L-21.77505990338078,-91.91920716506358L-19.913425318349283,-88.13657240253642zM-16.370486444892816,-101.44739053498506L-18.42206508627585,-93.68598776816427L-16.57170108222775,-89.89762208492152zM-13.005851531327528,-102.91056007843032L-15.002768735277161,-95.32656223402151L-13.16358310397171,-91.5322409196355z" style="fill:rgb(247,158,158)"/><path d="M-39.65586842656823,-92.97305709165752L-39.87178554960645,-79.03135554484027L-39.28349280607261,-93.22654532409884zM-41.79950112357816,-91.38914153846157L-39.87178554960645,-79.03135554484027L-39.65586842656823,-92.97305709165752zM-4.412655777775143,-110.50826397216463L-0.8995292949246918,-100.51879371657934L-0.8889443383971419,-111.58700688268452z" style="fill:rgb(83,212,212)"/><path d="M-46.35199725319152,-87.84298240164752L-45.18745926403521,-67.70631537393244L-44.426050623330745,-84.10828588527954zM-44.880547681037775,-74.03973535527125L-42.240932834455684,-85.86396068871458L-44.158329455151446,-89.60194759651883zM-6.122260783333616,-105.5309980573306L-8.012339297140956,-98.20670750226938L-6.195100342858429,-94.39987301718656z" style="fill:rgb(247,158,158)"/><path d="M-43.455033774371046,-90.16587842038311L-42.45173318942724,-76.56975973418596L-41.79950112357816,-91.38914153846157z" style="fill:rgb(83,212,212)"/><path d="M-23.177263592585955,-86.25512468253302L-24.733760408802464,-102.04765425039206L-25.050228767398746,-90.03226984925112z" style="fill:rgb(247,158,158)"/><path d="M-44.158329455151446,-89.60194759651883L-42.45173318942724,-76.56975973418596L-43.455033774371046,-90.16587842038311zM-0.8889443383971419,-111.58700688268452L2.6722480765810266,-101.45078593011881L2.640773196112448,-112.51857945254528z" style="fill:rgb(83,212,212)"/><path d="M-31.947470608510546,-93.0842983990058L-34.29692156709405,-83.71629639573787L-32.38994401925947,-79.95402168161117zM-26.35194207009076,-84.25966334465802L-27.870532970305323,-100.3764072017239L-28.236262663847363,-88.03157580160196zM-9.700760533180665,-93.03474893662346L-11.391885068409042,-108.05705350782061L-11.528894200290939,-96.83523278479257zM-48.37099197579154,-86.13674160452128L-47.276725743204985,-65.06822699507009L-46.43698592468844,-82.40501911257186zM-2.627465687243496,-106.70302714001883L-4.465156688572056,-99.43606780253467L-2.6586222932627077,-95.6227145578145zM6.237795106314041,-102.22838141573334L7.919111808659726,-109.51735530953306L6.163954094006697,-113.34263935223007zM-29.42642509238546,-82.15694175011129L-30.90543552177979,-98.63027015868667L-31.32209503074201,-85.92389239031782z" style="fill:rgb(247,158,158)"/><path d="M-46.35199725319152,-87.84298240164752L-44.880547681037775,-74.03973535527125L-44.158329455151446,-89.60194759651883z" style="fill:rgb(83,212,212)"/><path d="M-34.73360075126357,-91.28802160440361L-37.15022347678822,-81.41620933387429L-35.23201571971285,-77.65831377921066z" style="fill:rgb(247,158,158)"/><path d="M2.640773196112448,-112.51857945254528L6.237795106314041,-102.22838141573334L3.665137222145966,-112.78892773788306zM-18.42206508627585,-93.68598776816427L-21.505517421878128,-103.66885064921573L-21.77505990338078,-91.91920716506358zM-21.77505990338078,-91.91920716506358L-24.733760408802464,-102.04765425039206L-25.050228767398746,-90.03226984925112zM-15.002768735277161,-95.32656223402151L-18.197643268308433,-105.22780577136147L-18.42206508627585,-93.68598776816427zM-25.050228767398746,-90.03226984925112L-27.870532970305323,-100.3764072017239L-28.236262663847363,-88.03157580160196zM-11.528894200290939,-96.83523278479257L-14.82240450845537,-106.6969105775684L-15.002768735277161,-95.32656223402151zM3.665137222145966,-112.78892773788306L6.237795106314041,-102.22838141573334L6.163954094006697,-113.34263935223007zM-28.236262663847363,-88.03157580160196L-30.90543552177979,-98.63027015868667L-31.32209503074201,-85.92389239031782z" style="fill:rgb(83,212,212)"/><path d="M9.784668570151643,-102.84834772177442L11.413366300021007,-110.22479088886166L9.66778089484793,-114.05690379402925z" style="fill:rgb(247,158,158)"/><path d="M-8.012339297140956,-98.20670750226938L-11.391885068409042,-108.05705350782061L-11.528894200290939,-96.83523278479257zM-47.10287570709026,-87.24090405539923L-47.1490956569075,-71.4498817302132L-46.35199725319152,-87.84298240164752zM-48.37099197579154,-86.13674160452128L-47.1490956569075,-71.4498817302132L-47.10287570709026,-87.24090405539923zM-31.32209503074201,-85.92389239031782L-33.82684725608914,-96.8384525509262L-34.29692156709405,-83.71629639573787zM6.163954094006697,-113.34263935223007L9.784668570151643,-102.84834772177442L8.214090436178065,-113.79692888805727zM-4.465156688572056,-99.43606780253467L-7.917821368311396,-109.32978855304788L-8.012339297140956,-98.20670750226938z" style="fill:rgb(83,212,212)"/><path d="M0.8965204836220003,-96.69877467824747L-0.8889443383971419,-111.58700688268452L-0.8995292949246918,-100.51879371657934z" style="fill:rgb(247,158,158)"/><path d="M8.214090436178065,-113.79692888805727L9.784668570151643,-102.84834772177442L9.66778089484793,-114.05690379402925z" style="fill:rgb(83,212,212)"/><path d="M-51.17096774122863,-66.12634472599599L-48.263109782762264,-80.81120541523563L-50.20454064700071,-84.54025157120333zM-39.89107407984964,-87.64755131894037L-42.45173318942724,-76.56975973418596L-40.51143970151676,-72.81968584307907z" style="fill:rgb(247,158,158)"/><path d="M-34.29692156709405,-83.71629639573787L-36.622932705675574,-95.03769430855213L-37.15022347678822,-81.41620933387429z" style="fill:rgb(83,212,212)"/><path d="M-18.42206508627585,-93.68598776816427L-19.913425318349283,-88.13657240253642L-16.57170108222775,-89.89762208492152z" style="fill:rgb(168,53,222)"/><path d="M-37.942460432076956,-75.27753041257567L-39.28349280607261,-93.22654532409884L-39.87178554960645,-79.03135554484027z" style="fill:rgb(247,158,158)"/><path d="M-50.20454064700071,-84.54025157120333L-49.24866218733574,-68.80904679659503L-48.37099197579154,-86.13674160452128z" style="fill:rgb(83,212,212)"/><path d="M-15.002768735277161,-95.32656223402151L-16.57170108222775,-89.89762208492152L-13.16358310397171,-91.5322409196355z" style="fill:rgb(160,49,222)"/><path d="M-0.8995292949246918,-100.51879371657934L-4.412655777775143,-110.50826397216463L-4.465156688572056,-99.43606780253467z" style="fill:rgb(83,212,212)"/><path d="M-21.77505990338078,-91.91920716506358L-23.177263592585955,-86.25512468253302L-19.913425318349283,-88.13657240253642z" style="fill:rgb(175,57,222)"/><path d="M13.300388938928679,-103.30790764796237L14.875648895047862,-110.82153215154239L13.139381850311098,-114.66049769368158z" style="fill:rgb(247,158,158)"/><path d="M-11.528894200290939,-96.83523278479257L-13.16358310397171,-91.5322409196355L-9.700760533180665,-93.03474893662346z" style="fill:rgb(153,46,222)"/><path d="M-25.050228767398746,-90.03226984925112L-26.35194207009076,-84.25966334465802L-23.177263592585955,-86.25512468253302z" style="fill:rgb(181,61,221)"/><path d="M4.458065110327505,-97.6239761778764L2.640773196112448,-112.51857945254528L2.6722480765810266,-101.45078593011881zM7.919111808659726,-109.51735530953306L6.237795106314041,-102.22838141573334L8.013660732865432,-98.39467920591979z" style="fill:rgb(247,158,158)"/><path d="M-8.012339297140956,-98.20670750226938L-9.700760533180665,-93.03474893662346L-6.195100342858429,-94.39987301718656z" style="fill:rgb(146,43,221)"/><path d="M9.66778089484793,-114.05690379402925L13.300388938928679,-103.30790764796237L12.74262610552107,-114.60680628080495zM-37.15022347678822,-81.41620933387429L-39.28349280607261,-93.22654532409884L-39.87178554960645,-79.03135554484027z" style="fill:rgb(83,212,212)"/><path d="M-28.236262663847363,-88.03157580160196L-29.42642509238546,-82.15694175011129L-26.35194207009076,-84.25966334465802z" style="fill:rgb(188,65,220)"/><path d="M-52.90821299781391,-63.411097598111034L-49.899137651984496,-79.28690881865712L-51.84742891450372,-83.0136154327102z" style="fill:rgb(247,158,158)"/><path d="M2.6722480765810266,-101.45078593011881L-0.8889443383971419,-111.58700688268452L-0.8995292949246918,-100.51879371657934zM-50.586716198230775,-84.20748544157988L-51.17096774122863,-66.12634472599599L-50.20454064700071,-84.54025157120333z" style="fill:rgb(83,212,212)"/><path d="M-42.240932834455684,-85.86396068871458L-44.880547681037775,-74.03973535527125L-42.92947140965476,-70.29308393919189z" style="fill:rgb(247,158,158)"/><path d="M-19.913425318349283,-88.13657240253642L-18.42206508627585,-93.68598776816427L-21.77505990338078,-91.91920716506358z" style="fill:rgb(168,53,222)"/><path d="M-16.57170108222775,-89.89762208492152L-15.002768735277161,-95.32656223402151L-18.42206508627585,-93.68598776816427z" style="fill:rgb(160,49,222)"/><path d="M12.74262610552107,-114.60680628080495L13.300388938928679,-103.30790764796237L13.139381850311098,-114.66049769368158zM-51.84742891450372,-83.0136154327102L-51.17096774122863,-66.12634472599599L-50.586716198230775,-84.20748544157988z" style="fill:rgb(83,212,212)"/><path d="M-23.177263592585955,-86.25512468253302L-21.77505990338078,-91.91920716506358L-25.050228767398746,-90.03226984925112z" style="fill:rgb(175,57,222)"/><path d="M-4.465156688572056,-99.43606780253467L-6.195100342858429,-94.39987301718656L-2.6586222932627077,-95.6227145578145z" style="fill:rgb(138,40,220)"/><path d="M-13.16358310397171,-91.5322409196355L-11.528894200290939,-96.83523278479257L-15.002768735277161,-95.32656223402151z" style="fill:rgb(153,46,222)"/><path d="M16.772465103659798,-103.60476092217759L18.2936596537715,-111.27847111642106L16.566375765136204,-115.12430216717809z" style="fill:rgb(247,158,158)"/><path d="M-26.35194207009076,-84.25966334465802L-25.050228767398746,-90.03226984925112L-28.236262663847363,-88.03157580160196z" style="fill:rgb(181,61,221)"/><path d="M-29.42642509238546,-82.15694175011129L-34.29692156709405,-83.71629639573787L-32.38994401925947,-79.95402168161117z" style="fill:rgb(194,70,219)"/><path d="M-9.700760533180665,-93.03474893662346L-8.012339297140956,-98.20670750226938L-11.528894200290939,-96.83523278479257z" style="fill:rgb(146,43,221)"/><path d="M11.413366300021007,-110.22479088886166L9.784668570151643,-102.84834772177442L11.550895743563384,-99.00767556398478z" style="fill:rgb(247,158,158)"/><path d="M-39.87178554960645,-79.03135554484027L-41.79950112357816,-91.38914153846157L-42.45173318942724,-76.56975973418596zM6.237795106314041,-102.22838141573334L2.640773196112448,-112.51857945254528L2.6722480765810266,-101.45078593011881z" style="fill:rgb(83,212,212)"/><path d="M-0.8995292949246918,-100.51879371657934L-2.6586222932627077,-95.6227145578145L0.8965204836220003,-96.69877467824747z" style="fill:rgb(131,38,218)"/><path d="M-54.52160852724317,-80.4275518257988L-53.78911554877437,-54.187912495527655L-52.56192162875732,-76.70460226268237zM-54.45310678960129,-60.672857871202105L-51.333721296180975,-77.92468213572845L-53.28808843675747,-81.64934820285303z" style="fill:rgb(247,158,158)"/><path d="M-29.42642509238546,-82.15694175011129L-28.236262663847363,-88.03157580160196L-31.32209503074201,-85.92389239031782z" style="fill:rgb(188,65,220)"/><path d="M-6.195100342858429,-94.39987301718656L-4.465156688572056,-99.43606780253467L-8.012339297140956,-98.20670750226938z" style="fill:rgb(138,40,220)"/><path d="M13.139381850311098,-114.66049769368158L16.772465103659798,-103.60476092217759L16.566375765136204,-115.12430216717809zM-53.28808843675747,-81.64934820285303L-52.90821299781391,-63.411097598111034L-51.84742891450372,-83.0136154327102z" style="fill:rgb(83,212,212)"/><path d="M-32.38994401925947,-79.95402168161117L-37.15022347678822,-81.41620933387429L-35.23201571971285,-77.65831377921066z" style="fill:rgb(200,75,217)"/><path d="M-34.29692156709405,-83.71629639573787L-29.42642509238546,-82.15694175011129L-31.32209503074201,-85.92389239031782z" style="fill:rgb(194,70,219)"/><path d="M-42.45173318942724,-76.56975973418596L-44.158329455151446,-89.60194759651883L-44.880547681037775,-74.03973535527125z" style="fill:rgb(83,212,212)"/><path d="M-2.6586222932627077,-95.6227145578145L-0.8995292949246918,-100.51879371657934L-4.465156688572056,-99.43606780253467z" style="fill:rgb(131,38,218)"/><path d="M2.6722480765810266,-101.45078593011881L0.8965204836220003,-96.69877467824747L4.458065110327505,-97.6239761778764z" style="fill:rgb(123,36,216)"/><path d="M14.875648895047862,-110.82153215154239L13.300388938928679,-103.30790764796237L15.057319182947888,-99.4602132693064z" style="fill:rgb(247,158,158)"/><path d="M9.784668570151643,-102.84834772177442L6.163954094006697,-113.34263935223007L6.237795106314041,-102.22838141573334z" style="fill:rgb(83,212,212)"/><path d="M20.188425683989035,-103.73708327848865L21.65459023564435,-111.60720864808962L19.935950212753536,-115.45990722466543z" style="fill:rgb(247,158,158)"/><path d="M-53.89424148896121,-81.07533737363245L-54.45310678960129,-60.672857871202105L-53.28808843675747,-81.64934820285303z" style="fill:rgb(83,212,212)"/><path d="M-37.15022347678822,-81.41620933387429L-32.38994401925947,-79.95402168161117L-34.29692156709405,-83.71629639573787z" style="fill:rgb(200,75,217)"/><path d="M-45.18745926403521,-67.70631537393244L-46.35199725319152,-87.84298240164752L-47.1490956569075,-71.4498817302132z" style="fill:rgb(247,158,158)"/><path d="M16.566375765136204,-115.12430216717809L20.188425683989035,-103.73708327848865L17.23536154643314,-115.21484877438824zM-54.52160852724317,-80.4275518257988L-54.45310678960129,-60.672857871202105L-53.89424148896121,-81.07533737363245z" style="fill:rgb(83,212,212)"/><path d="M-35.23201571971285,-77.65831377921066L-39.87178554960645,-79.03135554484027L-37.942460432076956,-75.27753041257567z" style="fill:rgb(206,80,215)"/><path d="M0.8965204836220003,-96.69877467824747L2.6722480765810266,-101.45078593011881L-0.8995292949246918,-100.51879371657934z" style="fill:rgb(123,36,216)"/><path d="M17.23536154643314,-115.21484877438824L20.188425683989035,-103.73708327848865L19.935950212753536,-115.45990722466543zM-44.880547681037775,-74.03973535527125L-46.35199725319152,-87.84298240164752L-47.1490956569075,-71.4498817302132z" style="fill:rgb(83,212,212)"/><path d="M6.237795106314041,-102.22838141573334L4.458065110327505,-97.6239761778764L8.013660732865432,-98.39467920591979z" style="fill:rgb(116,34,214)"/><path d="M-39.87178554960645,-79.03135554484027L-35.23201571971285,-77.65831377921066L-37.15022347678822,-81.41620933387429z" style="fill:rgb(206,80,215)"/><path d="M-56.93938946382475,-55.16651437417608L-53.57717388253406,-75.6530640502658L-55.54135242436166,-79.37461882114367z" style="fill:rgb(247,158,158)"/><path d="M13.300388938928679,-103.30790764796237L9.66778089484793,-114.05690379402925L9.784668570151643,-102.84834772177442zM-55.54135242436166,-79.37461882114367L-55.79889371376996,-57.92136246945907L-54.52160852724317,-80.4275518257988z" style="fill:rgb(83,212,212)"/><path d="M18.2936596537715,-111.27847111642106L16.772465103659798,-103.60476092217759L18.52047071571815,-99.75001810314495z" style="fill:rgb(247,158,158)"/><path d="M-37.942460432076956,-75.27753041257567L-42.45173318942724,-76.56975973418596L-40.51143970151676,-72.81968584307907z" style="fill:rgb(212,85,213)"/><path d="M-47.276725743204985,-65.06822699507009L-48.37099197579154,-86.13674160452128L-49.24866218733574,-68.80904679659503z" style="fill:rgb(247,158,158)"/><path d="M4.458065110327505,-97.6239761778764L6.237795106314041,-102.22838141573334L2.6722480765810266,-101.45078593011881z" style="fill:rgb(116,34,214)"/><path d="M23.535847786182174,-103.70356399031724L24.9452931255842,-111.8280017170038L23.234964712565496,-115.68747851655584zM-48.263109782762264,-80.81120541523563L-51.17096774122863,-66.12634472599599L-49.189029097575556,-62.3879058673306z" style="fill:rgb(247,158,158)"/><path d="M19.935950212753536,-115.45990722466543L23.535847786182174,-103.70356399031724L21.676849374268777,-115.61788765047143z" style="fill:rgb(83,212,212)"/><path d="M9.784668570151643,-102.84834772177442L8.013660732865432,-98.39467920591979L11.550895743563384,-99.00767556398478z" style="fill:rgb(108,33,211)"/><path d="M-47.1490956569075,-71.4498817302132L-48.37099197579154,-86.13674160452128L-49.24866218733574,-68.80904679659503z" style="fill:rgb(83,212,212)"/><path d="M-56.91229443593944,-77.95905966530849L-56.54929083727975,-45.955343480157715L-54.942071672831354,-74.23938674241477z" style="fill:rgb(247,158,158)"/><path d="M-42.45173318942724,-76.56975973418596L-37.942460432076956,-75.27753041257567L-39.87178554960645,-79.03135554484027z" style="fill:rgb(212,85,213)"/><path d="M26.450538310749053,-115.81197955007912L28.526134499613296,-99.62762260464872L28.152906410240586,-111.94579312723451zM-57.86902283480664,-52.41838275099715L-54.371799699280025,-74.83004055711392L-56.33949646933041,-78.55050088854556z" style="fill:rgb(247,158,158)"/><path d="M-56.33949646933041,-78.55050088854556L-56.93938946382475,-55.16651437417608L-55.54135242436166,-79.37461882114367zM21.676849374268777,-115.61788765047143L23.535847786182174,-103.70356399031724L23.234964712565496,-115.68747851655584zM16.772465103659798,-103.60476092217759L13.139381850311098,-114.66049769368158L13.300388938928679,-103.30790764796237z" style="fill:rgb(83,212,212)"/><path d="M-40.51143970151676,-72.81968584307907L-44.880547681037775,-74.03973535527125L-42.92947140965476,-70.29308393919189z" style="fill:rgb(217,91,210)"/><path d="M8.013660732865432,-98.39467920591979L9.784668570151643,-102.84834772177442L6.237795106314041,-102.22838141573334z" style="fill:rgb(108,33,211)"/><path d="M21.65459023564435,-111.60720864808962L20.188425683989035,-103.73708327848865L21.927906407206457,-99.8752928331802zM-49.899137651984496,-79.28690881865712L-52.90821299781391,-63.411097598111034L-50.9166079469336,-59.67468805784921z" style="fill:rgb(247,158,158)"/><path d="M-44.880547681037775,-74.03973535527125L-40.51143970151676,-72.81968584307907L-42.45173318942724,-76.56975973418596z" style="fill:rgb(217,91,210)"/><path d="M13.300388938928679,-103.30790764796237L11.550895743563384,-99.00767556398478L15.057319182947888,-99.4602132693064z" style="fill:rgb(101,32,208)"/><path d="M-56.91229443593944,-77.95905966530849L-57.86902283480664,-52.41838275099715L-56.33949646933041,-78.55050088854556zM-49.24866218733574,-68.80904679659503L-50.20454064700071,-84.54025157120333L-51.17096774122863,-66.12634472599599zM23.234964712565496,-115.68747851655584L26.80238876267236,-103.50339434719125L26.05159761937241,-115.81330137615134z" style="fill:rgb(83,212,212)"/><path d="M11.550895743563384,-99.00767556398478L13.300388938928679,-103.30790764796237L9.784668570151643,-102.84834772177442z" style="fill:rgb(101,32,208)"/><path d="M-42.92947140965476,-70.29308393919189L-47.1490956569075,-71.4498817302132L-45.18745926403521,-67.70631537393244z" style="fill:rgb(222,96,207)"/><path d="M20.188425683989035,-103.73708327848865L16.566375765136204,-115.12430216717809L16.772465103659798,-103.60476092217759z" style="fill:rgb(83,212,212)"/><path d="M-59.07666071349989,-46.98306476866642L-55.28676873919381,-73.85842161100622L-57.25856993926388,-77.57763408730673z" style="fill:rgb(247,158,158)"/><path d="M26.05159761937241,-115.81330137615134L26.80238876267236,-103.50339434719125L26.450538310749053,-115.81197955007912zM-57.01349933401566,-77.8545605837807L-58.582861928437445,-49.68714297828074L-56.91229443593944,-77.95905966530849zM-57.25856993926388,-77.57763408730673L-58.582861928437445,-49.68714297828074L-57.01349933401566,-77.8545605837807z" style="fill:rgb(83,212,212)"/><path d="M24.9452931255842,-111.8280017170038L23.535847786182174,-103.70356399031724L25.267232981305785,-99.83475443727447z" style="fill:rgb(247,158,158)"/><path d="M-47.1490956569075,-71.4498817302132L-42.92947140965476,-70.29308393919189L-44.880547681037775,-74.03973535527125z" style="fill:rgb(222,96,207)"/><path d="M-51.17096774122863,-66.12634472599599L-51.84742891450372,-83.0136154327102L-52.90821299781391,-63.411097598111034z" style="fill:rgb(83,212,212)"/><path d="M-51.333721296180975,-77.92468213572845L-54.45310678960129,-60.672857871202105L-52.45220922242637,-56.93811397743459z" style="fill:rgb(247,158,158)"/><path d="M16.772465103659798,-103.60476092217759L15.057319182947888,-99.4602132693064L18.52047071571815,-99.75001810314495z" style="fill:rgb(94,32,205)"/><path d="M29.975818017211793,-103.13629711543776L31.265908575707755,-111.9288440613692L29.57106169308838,-115.80162953936448z" style="fill:rgb(247,158,158)"/><path d="M-57.374390626086125,-77.44676173718936L-59.07666071349989,-46.98306476866642L-57.25856993926388,-77.57763408730673z" style="fill:rgb(83,212,212)"/><path d="M15.057319182947888,-99.4602132693064L16.772465103659798,-103.60476092217759L13.300388938928679,-103.30790764796237z" style="fill:rgb(94,32,205)"/><path d="M26.450538310749053,-115.81197955007912L29.975818017211793,-103.13629711543776L29.57106169308838,-115.80162953936448z" style="fill:rgb(83,212,212)"/><path d="M-45.18745926403521,-67.70631537393244L-49.24866218733574,-68.80904679659503L-47.276725743204985,-65.06822699507009z" style="fill:rgb(226,102,203)"/><path d="M23.535847786182174,-103.70356399031724L19.935950212753536,-115.45990722466543L20.188425683989035,-103.73708327848865z" style="fill:rgb(83,212,212)"/><path d="M-49.24866218733574,-68.80904679659503L-45.18745926403521,-67.70631537393244L-47.1490956569075,-71.4498817302132z" style="fill:rgb(226,102,203)"/><path d="M-52.90821299781391,-63.411097598111034L-53.28808843675747,-81.64934820285303L-54.45310678960129,-60.672857871202105z" style="fill:rgb(83,212,212)"/><path d="M20.188425683989035,-103.73708327848865L18.52047071571815,-99.75001810314495L21.927906407206457,-99.8752928331802z" style="fill:rgb(86,32,201)"/><path d="M33.04406211720189,-102.60256674900846L34.27141700411412,-111.79951609613418L32.58366367483699,-115.67875704298349z" style="fill:rgb(247,158,158)"/><path d="M18.52047071571815,-99.75001810314495L20.188425683989035,-103.73708327848865L16.772465103659798,-103.60476092217759z" style="fill:rgb(86,32,201)"/><path d="M29.57106169308838,-115.80162953936448L33.04406211720189,-102.60256674900846L30.344108567124223,-115.79905669185047z" style="fill:rgb(83,212,212)"/><path d="M-47.276725743204985,-65.06822699507009L-51.17096774122863,-66.12634472599599L-49.189029097575556,-62.3879058673306z" style="fill:rgb(230,108,199)"/><path d="M26.80238876267236,-103.50339434719125L23.234964712565496,-115.68747851655584L23.535847786182174,-103.70356399031724z" style="fill:rgb(83,212,212)"/><path d="M-53.78911554877437,-54.187912495527655L-54.52160852724317,-80.4275518257988L-55.79889371376996,-57.92136246945907zM28.526134499613296,-99.62762260464872L26.450538310749053,-115.81197955007912L26.80238876267236,-103.50339434719125z" style="fill:rgb(247,158,158)"/><path d="M30.344108567124223,-115.79905669185047L33.04406211720189,-102.60256674900846L32.58366367483699,-115.67875704298349z" style="fill:rgb(83,212,212)"/><path d="M-51.17096774122863,-66.12634472599599L-47.276725743204985,-65.06822699507009L-49.24866218733574,-68.80904679659503z" style="fill:rgb(230,108,199)"/><path d="M-54.45310678960129,-60.672857871202105L-54.52160852724317,-80.4275518257988L-55.79889371376996,-57.92136246945907z" style="fill:rgb(83,212,212)"/><path d="M-53.57717388253406,-75.6530640502658L-56.93938946382475,-55.16651437417608L-54.92118055386516,-51.43399633846121z" style="fill:rgb(247,158,158)"/><path d="M23.535847786182174,-103.70356399031724L21.927906407206457,-99.8752928331802L25.267232981305785,-99.83475443727447z" style="fill:rgb(79,32,198)"/><path d="M31.265908575707755,-111.9288440613692L29.975818017211793,-103.13629711543776L31.692411659334432,-99.25365591416707z" style="fill:rgb(247,158,158)"/><path d="M21.927906407206457,-99.8752928331802L23.535847786182174,-103.70356399031724L20.188425683989035,-103.73708327848865z" style="fill:rgb(79,32,198)"/><path d="M35.9952361980957,-101.90302095048264L37.156219132051966,-111.58792119872541L35.47515269440533,-115.47341502630002z" style="fill:rgb(247,158,158)"/><path d="M-49.189029097575556,-62.3879058673306L-52.90821299781391,-63.411097598111034L-50.9166079469336,-59.67468805784921z" style="fill:rgb(234,114,195)"/><path d="M32.58366367483699,-115.67875704298349L35.9952361980957,-101.90302095048264L34.538903360457525,-115.57370890331445zM29.975818017211793,-103.13629711543776L26.450538310749053,-115.81197955007912L26.80238876267236,-103.50339434719125zM-55.79889371376996,-57.92136246945907L-55.54135242436166,-79.37461882114367L-56.93938946382475,-55.16651437417608z" style="fill:rgb(83,212,212)"/><path d="M-52.90821299781391,-63.411097598111034L-49.189029097575556,-62.3879058673306L-51.17096774122863,-66.12634472599599z" style="fill:rgb(234,114,195)"/><path d="M38.23386271169387,-115.17786966107253L40.516004471977816,-97.13661214990323L39.908692785908876,-111.2863393224577z" style="fill:rgb(247,158,158)"/><path d="M34.538903360457525,-115.57370890331445L35.9952361980957,-101.90302095048264L35.47515269440533,-115.47341502630002z" style="fill:rgb(83,212,212)"/><path d="M-54.371799699280025,-74.83004055711392L-57.86902283480664,-52.41838275099715L-55.842870596659345,-48.68641116320962z" style="fill:rgb(247,158,158)"/><path d="M26.80238876267236,-103.50339434719125L25.267232981305785,-99.83475443727447L28.526134499613296,-99.62762260464872z" style="fill:rgb(73,33,193)"/><path d="M34.27141700411412,-111.79951609613418L33.04406211720189,-102.60256674900846L34.754016789132216,-98.7131578589786z" style="fill:rgb(247,158,158)"/><path d="M25.267232981305785,-99.83475443727447L26.80238876267236,-103.50339434719125L23.535847786182174,-103.70356399031724z" style="fill:rgb(73,33,193)"/><path d="M-50.9166079469336,-59.67468805784921L-54.45310678960129,-60.672857871202105L-52.45220922242637,-56.93811397743459z" style="fill:rgb(237,120,191)"/><path d="M-56.93938946382475,-55.16651437417608L-56.33949646933041,-78.55050088854556L-57.86902283480664,-52.41838275099715zM33.04406211720189,-102.60256674900846L29.57106169308838,-115.80162953936448L29.975818017211793,-103.13629711543776zM35.47515269440533,-115.47341502630002L38.817681661272594,-101.0390776059618L38.23386271169387,-115.17786966107253z" style="fill:rgb(83,212,212)"/><path d="M-54.45310678960129,-60.672857871202105L-50.9166079469336,-59.67468805784921L-52.90821299781391,-63.411097598111034z" style="fill:rgb(237,120,191)"/><path d="M29.975818017211793,-103.13629711543776L28.526134499613296,-99.62762260464872L31.692411659334432,-99.25365591416707z" style="fill:rgb(66,34,189)"/><path d="M37.156219132051966,-111.58792119872541L35.9952361980957,-101.90302095048264L37.699091859879694,-98.00699626506298z" style="fill:rgb(247,158,158)"/><path d="M28.526134499613296,-99.62762260464872L29.975818017211793,-103.13629711543776L26.80238876267236,-103.50339434719125z" style="fill:rgb(66,34,189)"/><path d="M-56.54929083727975,-45.955343480157715L-56.91229443593944,-77.95905966530849L-58.582861928437445,-49.68714297828074z" style="fill:rgb(247,158,158)"/><path d="M38.23386271169387,-115.17786966107253L41.50002248074809,-100.01274807597126L38.62056533187029,-115.13644573515118z" style="fill:rgb(83,212,212)"/><path d="M41.50002248074809,-100.01274807597126L42.51836385365005,-110.87300249083101L40.84925360635711,-114.77035835664957z" style="fill:rgb(247,158,158)"/><path d="M-57.86902283480664,-52.41838275099715L-56.91229443593944,-77.95905966530849L-58.582861928437445,-49.68714297828074z" style="fill:rgb(83,212,212)"/><path d="M-52.45220922242637,-56.93811397743459L-55.79889371376996,-57.92136246945907L-53.78911554877437,-54.187912495527655z" style="fill:rgb(240,125,187)"/><path d="M-55.28676873919381,-73.85842161100622L-59.07666071349989,-46.98306476866642L-57.03623159308095,-43.25106136653329z" style="fill:rgb(247,158,158)"/><path d="M35.9952361980957,-101.90302095048264L32.58366367483699,-115.67875704298349L33.04406211720189,-102.60256674900846zM38.62056533187029,-115.13644573515118L41.50002248074809,-100.01274807597126L40.84925360635711,-114.77035835664957z" style="fill:rgb(83,212,212)"/><path d="M34.754016789132216,-98.7131578589786L29.975818017211793,-103.13629711543776L31.692411659334432,-99.25365591416707z" style="fill:rgb(60,35,184)"/><path d="M-55.79889371376996,-57.92136246945907L-52.45220922242637,-56.93811397743459L-54.45310678960129,-60.672857871202105z" style="fill:rgb(240,125,187)"/><path d="M-58.582861928437445,-49.68714297828074L-57.25856993926388,-77.57763408730673L-59.07666071349989,-46.98306476866642z" style="fill:rgb(83,212,212)"/><path d="M44.031199142315586,-98.82662609373709L44.970984785459805,-110.41847397706307L43.30716425118395,-114.32134127697589z" style="fill:rgb(247,158,158)"/><path d="M40.84925360635711,-114.77035835664957L44.031199142315586,-98.82662609373709L42.573775606264526,-114.48708978777351z" style="fill:rgb(83,212,212)"/><path d="M29.975818017211793,-103.13629711543776L34.754016789132216,-98.7131578589786L33.04406211720189,-102.60256674900846z" style="fill:rgb(60,35,184)"/><path d="M-53.78911554877437,-54.187912495527655L-56.93938946382475,-55.16651437417608L-54.92118055386516,-51.43399633846121z" style="fill:rgb(242,131,182)"/><path d="M38.817681661272594,-101.0390776059618L35.47515269440533,-115.47341502630002L35.9952361980957,-101.90302095048264z" style="fill:rgb(83,212,212)"/><path d="M37.699091859879694,-98.00699626506298L33.04406211720189,-102.60256674900846L34.754016789132216,-98.7131578589786z" style="fill:rgb(54,37,179)"/><path d="M-57.374390626086125,-77.44676173718936L-59.332999555260734,-5.088429935901184L-55.402051223777654,-73.72770140068401z" style="fill:rgb(247,158,158)"/><path d="M-56.93938946382475,-55.16651437417608L-53.78911554877437,-54.187912495527655L-55.79889371376996,-57.92136246945907z" style="fill:rgb(242,131,182)"/><path d="M40.516004471977816,-97.13661214990323L38.23386271169387,-115.17786966107253L38.817681661272594,-101.0390776059618zM45.59804534406491,-113.80360864300721L48.08589067326355,-93.56349846613186L47.25708125130654,-109.89554532812312z" style="fill:rgb(247,158,158)"/><path d="M42.573775606264526,-114.48708978777351L44.031199142315586,-98.82662609373709L43.30716425118395,-114.32134127697589zM-59.07666071349989,-46.98306476866642L-57.374390626086125,-77.44676173718936L-59.34688031283085,-44.316485580115064z" style="fill:rgb(83,212,212)"/><path d="M42.51836385365005,-110.87300249083101L41.50002248074809,-100.01274807597126L43.193403992334865,-96.10404676076986z" style="fill:rgb(247,158,158)"/><path d="M43.30716425118395,-114.32134127697589L46.40052015484126,-97.48393799157635L45.59804534406491,-113.80360864300721z" style="fill:rgb(83,212,212)"/><path d="M33.04406211720189,-102.60256674900846L37.699091859879694,-98.00699626506298L35.9952361980957,-101.90302095048264z" style="fill:rgb(54,37,179)"/><path d="M-54.92118055386516,-51.43399633846121L-57.86902283480664,-52.41838275099715L-55.842870596659345,-48.68641116320962z" style="fill:rgb(244,137,177)"/><path d="M41.50002248074809,-100.01274807597126L38.23386271169387,-115.17786966107253L38.817681661272594,-101.0390776059618z" style="fill:rgb(83,212,212)"/><path d="M-57.86902283480664,-52.41838275099715L-54.92118055386516,-51.43399633846121L-56.93938946382475,-55.16651437417608z" style="fill:rgb(244,137,177)"/><path d="M40.516004471977816,-97.13661214990323L35.9952361980957,-101.90302095048264L37.699091859879694,-98.00699626506298z" style="fill:rgb(48,39,174)"/><path d="M-59.93295763511519,-74.55558477515066L-61.45982443587219,-8.827121443025272L-57.374390626086125,-77.44676173718936zM-62.64151942475438,-71.18919843937884L-63.89426329156042,-10.670130589776354L-59.93295763511519,-74.55558477515066zM-65.1285566270146,-67.76652478613035L-66.40231681432319,-12.957837610363041L-62.64151942475438,-71.18919843937884z" style="fill:rgb(83,212,212)"/><path d="M48.59771619959597,-95.98851469574197L49.36558725271101,-109.32368030926884L47.71083347252658,-113.23660630388106z" style="fill:rgb(247,158,158)"/><path d="M45.59804534406491,-113.80360864300721L48.59771619959597,-95.98851469574197L46.3833667368512,-113.62613821985843zM-67.38395036038582,-64.29899715889164L-68.63132125337546,-15.417499736111145L-65.1285566270146,-67.76652478613035z" style="fill:rgb(83,212,212)"/><path d="M44.970984785459805,-110.41847397706307L44.031199142315586,-98.82662609373709L45.72025541055164,-94.91192361618226z" style="fill:rgb(247,158,158)"/><path d="M-69.39814820105181,-60.79837360020435L-70.57523128994053,-18.037248922632713L-67.38395036038582,-64.29899715889164zM46.3833667368512,-113.62613821985843L48.59771619959597,-95.98851469574197L47.71083347252658,-113.23660630388106z" style="fill:rgb(83,212,212)"/><path d="M35.9952361980957,-101.90302095048264L40.516004471977816,-97.13661214990323L38.817681661272594,-101.0390776059618z" style="fill:rgb(48,39,174)"/><path d="M44.031199142315586,-98.82662609373709L40.84925360635711,-114.77035835664957L41.50002248074809,-100.01274807597126z" style="fill:rgb(83,212,212)"/><path d="M-55.842870596659345,-48.68641116320962L-58.582861928437445,-49.68714297828074L-56.54929083727975,-45.955343480157715z" style="fill:rgb(245,143,172)"/><path d="M-71.16215953372858,-57.27669485170093L-72.22935079663978,-20.80480233779224L-69.39814820105181,-60.79837360020435z" style="fill:rgb(83,212,212)"/><path d="M-58.582861928437445,-49.68714297828074L-55.842870596659345,-48.68641116320962L-57.86902283480664,-52.41838275099715z" style="fill:rgb(245,143,172)"/><path d="M43.193403992334865,-96.10404676076986L38.817681661272594,-101.0390776059618L40.516004471977816,-97.13661214990323z" style="fill:rgb(42,41,169)"/><path d="M-72.66766215253863,-53.74626330029559L-73.5902517871569,-23.707527885050126L-71.16215953372858,-57.27669485170093z" style="fill:rgb(83,212,212)"/><path d="M50.61298085442311,-94.3448374700478L51.284130224705805,-108.75513685797084L49.633211103686826,-112.67250896864336z" style="fill:rgb(247,158,158)"/><path d="M-73.90701035054703,-50.219638534390285L-74.6557967624334,-26.732521524295567L-72.66766215253863,-53.74626330029559zM47.71083347252658,-113.23660630388106L50.61298085442311,-94.3448374700478L49.633211103686826,-112.67250896864336z" style="fill:rgb(83,212,212)"/><path d="M51.35853602479006,-112.06749704815391L54.115400814363696,-88.62221800191473L53.006165202736014,-108.14607162152109z" style="fill:rgb(247,158,158)"/><path d="M-74.87329276722862,-46.70959507067374L-75.42505532561538,-29.866676738587707L-73.90701035054703,-50.219638534390285zM46.40052015484126,-97.48393799157635L43.30716425118395,-114.32134127697589L44.031199142315586,-98.82662609373709z" style="fill:rgb(83,212,212)"/><path d="M38.817681661272594,-101.0390776059618L43.193403992334865,-96.10404676076986L41.50002248074809,-100.01274807597126z" style="fill:rgb(42,41,169)"/><path d="M-56.54929083727975,-45.955343480157715L-59.07666071349989,-46.98306476866642L-57.03623159308095,-43.25106136653329z" style="fill:rgb(246,149,166)"/><path d="M48.08589067326355,-93.56349846613186L45.59804534406491,-113.80360864300721L46.40052015484126,-97.48393799157635z" style="fill:rgb(247,158,158)"/><path d="M-59.07666071349989,-46.98306476866642L-56.54929083727975,-45.955343480157715L-58.582861928437445,-49.68714297828074z" style="fill:rgb(246,149,166)"/><path d="M45.72025541055164,-94.91192361618226L41.50002248074809,-100.01274807597126L43.193403992334865,-96.10404676076986z" style="fill:rgb(37,44,163)"/><path d="M-75.56038163809696,-43.229105303710206L-75.8982645065935,-33.09674484629998L-74.87329276722862,-46.70959507067374zM49.633211103686826,-112.67250896864336L52.437035312510815,-92.55799900083555L50.0343516631559,-112.55480306164748z" style="fill:rgb(83,212,212)"/><path d="M52.87379944504201,-111.50986986341351L55.73862772145287,-86.69357695547926L54.518569140732666,-107.58487203229295z" style="fill:rgb(247,158,158)"/><path d="M50.0343516631559,-112.55480306164748L52.437035312510815,-92.55799900083555L51.35853602479006,-112.06749704815391z" style="fill:rgb(83,212,212)"/><path d="M49.36558725271101,-109.32368030926884L48.59771619959597,-95.98851469574197L50.2800630229379,-92.06263175741712z" style="fill:rgb(247,158,158)"/><path d="M-76.07677217640145,-36.409397671567554L-75.56038163809696,-43.229105303710206L-75.96300366297103,-39.79129201738001zM48.59771619959597,-95.98851469574197L45.59804534406491,-113.80360864300721L46.40052015484126,-97.48393799157635z" style="fill:rgb(83,212,212)"/><path d="M41.50002248074809,-100.01274807597126L45.72025541055164,-94.91192361618226L44.031199142315586,-98.82662609373709z" style="fill:rgb(37,44,163)"/><path d="M-57.03623159308095,-43.25106136653329L-59.34688031283085,-44.316485580115064L-57.300186000630276,-40.58389107565395zM-59.34688031283085,-44.316485580115064L-57.03623159308095,-43.25106136653329L-59.07666071349989,-46.98306476866642z" style="fill:rgb(247,155,161)"/><path d="M51.35853602479006,-112.06749704815391L54.06118244579447,-90.63375811952812L52.87379944504201,-111.50986986341351z" style="fill:rgb(83,212,212)"/><path d="M48.08589067326355,-93.56349846613186L44.031199142315586,-98.82662609373709L45.72025541055164,-94.91192361618226z" style="fill:rgb(32,47,158)"/><path d="M-55.402051223777654,-73.72770140068401L-59.332999555260734,-5.088429935901184L-57.300186000630276,-40.58389107565395z" style="fill:rgb(255,127,127)"/><path d="M51.284130224705805,-108.75513685797084L50.61298085442311,-94.3448374700478L52.29298592008292,-90.4138310062368z" style="fill:rgb(247,158,158)"/><path d="M-75.56038163809696,-43.229105303710206L-76.07677217640145,-36.409397671567554L-75.8982645065935,-33.09674484629998z" style="fill:rgb(83,212,212)"/><path d="M55.47735335263366,-88.57847336594276L55.81525194363094,-107.0485048004568L54.172850834344736,-110.9765984966362z" style="fill:rgb(247,158,158)"/><path d="M-59.34688031283085,-44.316485580115064L-57.338418791114464,-37.96420407760569L-57.300186000630276,-40.58389107565395z" style="fill:rgb(247,161,155)"/><path d="M52.87379944504201,-111.50986986341351L55.47735335263366,-88.57847336594276L53.512003991610264,-111.27500863907477zM50.61298085442311,-94.3448374700478L47.71083347252658,-113.23660630388106L48.59771619959597,-95.98851469574197zM53.512003991610264,-111.27500863907477L55.47735335263366,-88.57847336594276L54.172850834344736,-110.9765984966362z" style="fill:rgb(83,212,212)"/><path d="M44.031199142315586,-98.82662609373709L48.08589067326355,-93.56349846613186L46.40052015484126,-97.48393799157635z" style="fill:rgb(32,47,158)"/><path d="M-74.87329276722862,-46.70959507067374L-75.8982645065935,-33.09674484629998L-75.42505532561538,-29.866676738587707z" style="fill:rgb(83,212,212)"/><path d="M50.2800630229379,-92.06263175741712L46.40052015484126,-97.48393799157635L48.08589067326355,-93.56349846613186z" style="fill:rgb(28,51,152)"/><path d="M56.67816677142279,-86.3991651610498L56.888420076795775,-106.5604656966998L55.24791230514251,-110.49114767146845zM56.090129713694274,-110.11083910608035L59.336135316595154,-80.1525656433772L57.7291486740343,-106.17813197009733z" style="fill:rgb(247,158,158)"/><path d="M-57.338418791114464,-37.96420407760569L-59.34688031283085,-44.316485580115064L-59.390740973344336,-41.697766883055685z" style="fill:rgb(247,161,155)"/><path d="M54.172850834344736,-110.9765984966362L56.67816677142279,-86.3991651610498L55.24791230514251,-110.49114767146845zM-73.90701035054703,-50.219638534390285L-75.42505532561538,-29.866676738587707L-74.6557967624334,-26.732521524295567zM52.437035312510815,-92.55799900083555L49.633211103686826,-112.67250896864336L50.61298085442311,-94.3448374700478z" style="fill:rgb(83,212,212)"/><path d="M-59.390740973344336,-41.697766883055685L-57.14895664945837,-35.402350979525075L-57.338418791114464,-37.96420407760569z" style="fill:rgb(246,166,149)"/><path d="M54.115400814363696,-88.62221800191473L51.35853602479006,-112.06749704815391L52.437035312510815,-92.55799900083555z" style="fill:rgb(247,158,158)"/><path d="M46.40052015484126,-97.48393799157635L50.2800630229379,-92.06263175741712L48.59771619959597,-95.98851469574197z" style="fill:rgb(28,51,152)"/><path d="M-72.66766215253863,-53.74626330029559L-74.6557967624334,-26.732521524295567L-73.5902517871569,-23.707527885050126zM55.24791230514251,-110.49114767146845L57.656991104772636,-84.1034623505543L56.090129713694274,-110.11083910608035z" style="fill:rgb(83,212,212)"/><path d="M52.29298592008292,-90.4138310062368L48.59771619959597,-95.98851469574197L50.2800630229379,-92.06263175741712z" style="fill:rgb(24,55,146)"/><path d="M58.40798820333124,-81.69959622187673L58.332925343400696,-105.90355497632818L56.69497859034866,-109.8377083164633z" style="fill:rgb(247,158,158)"/><path d="M-57.14895664945837,-35.402350979525075L-59.390740973344336,-41.697766883055685L-59.20624682848278,-39.13726210974828z" style="fill:rgb(246,166,149)"/><path d="M54.06118244579447,-90.63375811952812L51.35853602479006,-112.06749704815391L52.437035312510815,-92.55799900083555zM56.090129713694274,-110.11083910608035L58.40798820333124,-81.69959622187673L56.69497859034866,-109.8377083164633zM-71.16215953372858,-57.27669485170093L-73.5902517871569,-23.707527885050126L-72.22935079663978,-20.80480233779224z" style="fill:rgb(83,212,212)"/><path d="M55.73862772145287,-86.69357695547926L52.87379944504201,-111.50986986341351L54.06118244579447,-90.63375811952812z" style="fill:rgb(247,158,158)"/><path d="M-59.20624682848278,-39.13726210974828L-56.73066667345897,-32.90864569278921L-57.14895664945837,-35.402350979525075z" style="fill:rgb(245,172,143)"/><path d="M58.9261805284701,-79.19640446149847L58.69809185442945,-105.71289163342443L57.060752947379775,-109.64794626724425z" style="fill:rgb(247,158,158)"/><path d="M48.59771619959597,-95.98851469574197L52.29298592008292,-90.4138310062368L50.61298085442311,-94.3448374700478z" style="fill:rgb(24,55,146)"/><path d="M56.69497859034866,-109.8377083164633L58.9261805284701,-79.19640446149847L56.80188268643802,-109.78943520530503z" style="fill:rgb(83,212,212)"/><path d="M55.81525194363094,-107.0485048004568L55.47735335263366,-88.57847336594276L57.15461305238464,-84.63429083565143z" style="fill:rgb(247,158,158)"/><path d="M56.80188268643802,-109.78943520530503L58.9261805284701,-79.19640446149847L57.060752947379775,-109.64794626724425z" style="fill:rgb(83,212,212)"/><path d="M54.115400814363696,-88.62221800191473L50.61298085442311,-94.3448374700478L52.29298592008292,-90.4138310062368z" style="fill:rgb(20,59,140)"/><path d="M-69.39814820105181,-60.79837360020435L-72.22935079663978,-20.80480233779224L-70.57523128994053,-18.037248922632713zM55.47735335263366,-88.57847336594276L52.87379944504201,-111.50986986341351L54.06118244579447,-90.63375811952812z" style="fill:rgb(83,212,212)"/><path d="M-56.73066667345897,-32.90864569278921L-59.20624682848278,-39.13726210974828L-58.79223045820011,-36.64528382014494z" style="fill:rgb(245,172,143)"/><path d="M57.060752947379775,-109.64794626724425L59.20748274634395,-76.60329353133346L57.18311387109234,-109.58105953623239z" style="fill:rgb(83,212,212)"/><path d="M-58.79223045820011,-36.64528382014494L-56.08325721246569,-30.49330740892524L-56.73066667345897,-32.90864569278921z" style="fill:rgb(244,177,137)"/><path d="M-67.38395036038582,-64.29899715889164L-70.57523128994053,-18.037248922632713L-68.63132125337546,-15.417499736111145z" style="fill:rgb(83,212,212)"/><path d="M56.888420076795775,-106.5604656966998L56.67816677142279,-86.3991651610498L58.355989569634296,-82.45140425795084z" style="fill:rgb(247,158,158)"/><path d="M50.61298085442311,-94.3448374700478L54.115400814363696,-88.62221800191473L52.437035312510815,-92.55799900083555z" style="fill:rgb(20,59,140)"/><path d="M55.73862772145287,-86.69357695547926L52.437035312510815,-92.55799900083555L54.115400814363696,-88.62221800191473z" style="fill:rgb(17,63,135)"/><path d="M56.67816677142279,-86.3991651610498L54.172850834344736,-110.9765984966362L55.47735335263366,-88.57847336594276zM-65.1285566270146,-67.76652478613035L-68.63132125337546,-15.417499736111145L-66.40231681432319,-12.957837610363041z" style="fill:rgb(83,212,212)"/><path d="M-56.08325721246569,-30.49330740892524L-58.79223045820011,-36.64528382014494L-58.1483711078011,-34.23204904996522z" style="fill:rgb(244,177,137)"/><path d="M-58.1483711078011,-34.23204904996522L-55.207325709681285,-28.16643353035965L-56.08325721246569,-30.49330740892524z" style="fill:rgb(242,182,131)"/><path d="M52.437035312510815,-92.55799900083555L55.73862772145287,-86.69357695547926L54.06118244579447,-90.63375811952812z" style="fill:rgb(17,63,135)"/><path d="M-62.64151942475438,-71.18919843937884L-66.40231681432319,-12.957837610363041L-63.89426329156042,-10.670130589776354zM57.656991104772636,-84.1034623505543L55.24791230514251,-110.49114767146845L56.67816677142279,-86.3991651610498z" style="fill:rgb(83,212,212)"/><path d="M59.336135316595154,-80.1525656433772L56.090129713694274,-110.11083910608035L57.656991104772636,-84.1034623505543z" style="fill:rgb(247,158,158)"/><path d="M57.15461305238464,-84.63429083565143L54.06118244579447,-90.63375811952812L55.73862772145287,-86.69357695547926z" style="fill:rgb(14,67,129)"/><path d="M-59.332999555260734,-5.088429935901184L-57.374390626086125,-77.44676173718936L-61.45982443587219,-8.827121443025272zM58.332925343400696,-105.90355497632818L58.40798820333124,-81.69959622187673L60.08922100692801,-77.74602673470562z" style="fill:rgb(247,158,158)"/><path d="M-55.207325709681285,-28.16643353035965L-58.1483711078011,-34.23204904996522L-57.275239176752656,-31.907650267469347z" style="fill:rgb(242,182,131)"/><path d="M-59.93295763511519,-74.55558477515066L-63.89426329156042,-10.670130589776354L-61.45982443587219,-8.827121443025272z" style="fill:rgb(83,212,212)"/><path d="M-57.275239176752656,-31.907650267469347L-54.104376829299284,-25.937934780694665L-55.207325709681285,-28.16643353035965z" style="fill:rgb(240,187,125)"/><path d="M-61.34907047963183,-8.743275050124304L-57.338418791114464,-37.96420407760569L-59.390740973344336,-41.697766883055685z" style="fill:rgb(247,158,158)"/><path d="M-59.34688031283085,-44.316485580115064L-61.34907047963183,-8.743275050124304L-59.390740973344336,-41.697766883055685zM58.40798820333124,-81.69959622187673L56.090129713694274,-110.11083910608035L57.656991104772636,-84.1034623505543z" style="fill:rgb(83,212,212)"/><path d="M54.06118244579447,-90.63375811952812L57.15461305238464,-84.63429083565143L55.47735335263366,-88.57847336594276z" style="fill:rgb(14,67,129)"/><path d="M-59.20624682848278,-39.13726210974828L-58.88993053281248,-4.764478638472639L-57.14895664945837,-35.402350979525075zM58.69809185442945,-105.71289163342443L58.9261805284701,-79.19640446149847L60.61027424533148,-75.2406422378125z" style="fill:rgb(247,158,158)"/><path d="M58.355989569634296,-82.45140425795084L55.47735335263366,-88.57847336594276L57.15461305238464,-84.63429083565143z" style="fill:rgb(12,72,123)"/><path d="M-54.104376829299284,-25.937934780694665L-57.275239176752656,-31.907650267469347L-56.17431562753054,-29.681997976641913z" style="fill:rgb(240,187,125)"/><path d="M-59.390740973344336,-41.697766883055685L-61.114561436070204,-8.565740436223933L-59.20624682848278,-39.13726210974828zM58.9261805284701,-79.19640446149847L56.69497859034866,-109.8377083164633L58.40798820333124,-81.69959622187673z" style="fill:rgb(83,212,212)"/><path d="M55.47735335263366,-88.57847336594276L58.355989569634296,-82.45140425795084L56.67816677142279,-86.3991651610498z" style="fill:rgb(12,72,123)"/><path d="M-68.44586008391504,-14.317985448954945L-72.22935079663978,-20.80480233779224L-70.10196969986993,-17.0894523787651z" style="fill:rgb(17,63,135)"/><path d="M-60.45980215690554,-8.154649379819235L-56.73066667345897,-32.90864569278921L-58.79223045820011,-36.64528382014494z" style="fill:rgb(247,158,158)"/><path d="M59.336135316595154,-80.1525656433772L56.67816677142279,-86.3991651610498L58.355989569634296,-82.45140425795084z" style="fill:rgb(10,77,117)"/><path d="M-59.20624682848278,-39.13726210974828L-60.45980215690554,-8.154649379819235L-58.79223045820011,-36.64528382014494zM59.20748274634395,-76.60329353133346L57.060752947379775,-109.64794626724425L58.9261805284701,-79.19640446149847z" style="fill:rgb(83,212,212)"/><path d="M61.380443097012865,-41.2049042580607L58.82025839660151,-105.6457035620853L57.18311387109234,-109.58105953623239z" style="fill:rgb(247,158,158)"/><path d="M-72.22935079663978,-20.80480233779224L-68.44586008391504,-14.317985448954945L-70.57523128994053,-18.037248922632713z" style="fill:rgb(17,63,135)"/><path d="M-59.68254357901458,-7.66664773392936L-56.08325721246569,-30.49330740892524L-58.1483711078011,-34.23204904996522z" style="fill:rgb(247,158,158)"/><path d="M56.67816677142279,-86.3991651610498L59.336135316595154,-80.1525656433772L57.656991104772636,-84.1034623505543z" style="fill:rgb(10,77,117)"/><path d="M-58.79223045820011,-36.64528382014494L-59.68254357901458,-7.66664773392936L-58.1483711078011,-34.23204904996522zM57.18311387109234,-109.58105953623239L63.97548602435733,-44.45334163237602L59.88992936502902,-108.10153952658537z" style="fill:rgb(83,212,212)"/><path d="M-57.275239176752656,-31.907650267469347L-56.56274826923499,-3.2969855601347042L-55.207325709681285,-28.16643353035965z" style="fill:rgb(247,158,158)"/><path d="M-66.5010066225124,-11.693867456912944L-70.57523128994053,-18.037248922632713L-68.44586008391504,-14.317985448954945z" style="fill:rgb(20,59,140)"/><path d="M59.88992936502902,-108.10153952658537L66.65653172375026,-48.21064248530105L62.76250051765105,-106.21556726882653zM-58.1483711078011,-34.23204904996522L-58.686471571828676,-7.041263108412062L-57.275239176752656,-31.907650267469347z" style="fill:rgb(83,212,212)"/><path d="M74.78160084343779,-91.08249174713102L77.4398182249587,-84.01265477659418L76.40363538971712,-87.09973327906211z" style="fill:rgb(245,172,143)"/><path d="M62.76250051765105,-106.21556726882653L69.0459120979205,-51.99947392924551L65.40645075161973,-104.13657887124235z" style="fill:rgb(83,212,212)"/><path d="M-57.338418791114464,-37.96420407760569L-61.34907047963183,-8.743275050124304L-59.22234512506143,-5.004357216181364z" style="fill:rgb(247,158,158)"/><path d="M-70.57523128994053,-18.037248922632713L-66.5010066225124,-11.693867456912944L-68.63132125337546,-15.417499736111145z" style="fill:rgb(20,59,140)"/><path d="M65.40645075161973,-104.13657887124235L71.1351146864905,-55.802638177912236L67.80923092350177,-101.87046864895163z" style="fill:rgb(83,212,212)"/><path d="M-57.470487821740846,-6.344047712058719L-54.104376829299284,-25.937934780694665L-56.17431562753054,-29.681997976641913z" style="fill:rgb(247,158,158)"/><path d="M-57.275239176752656,-31.907650267469347L-58.071981606281,-6.655454045920071L-56.17431562753054,-29.681997976641913zM-61.34907047963183,-8.743275050124304L-59.34688031283085,-44.316485580115064L-61.45982443587219,-8.827121443025272z" style="fill:rgb(83,212,212)"/><path d="M-64.27215946973328,-9.229390650165833L-68.63132125337546,-15.417499736111145L-66.5010066225124,-11.693867456912944z" style="fill:rgb(24,55,146)"/><path d="M77.4398182249587,-84.01265477659418L74.78160084343779,-91.08249174713102L75.8155138202238,-87.9990467962983z" style="fill:rgb(245,172,143)"/><path d="M-58.88993053281248,-4.764478638472639L-59.20624682848278,-39.13726210974828L-61.01634002079853,-8.504072095874118z" style="fill:rgb(247,158,158)"/><path d="M-61.114561436070204,-8.565740436223933L-59.390740973344336,-41.697766883055685L-61.34907047963183,-8.743275050124304zM67.80923092350177,-101.87046864895163L72.91722320862033,-59.603111111822834L69.95890794968703,-99.42397227784375z" style="fill:rgb(83,212,212)"/><path d="M-56.73066667345897,-32.90864569278921L-60.45980215690554,-8.154649379819235L-58.3340303130499,-4.413934163752024z" style="fill:rgb(247,158,158)"/><path d="M75.8155138202238,-87.9990467962983L78.17689603879042,-80.79239185382457L77.4398182249587,-84.01265477659418z" style="fill:rgb(246,166,149)"/><path d="M-59.20624682848278,-39.13726210974828L-61.114561436070204,-8.565740436223933L-61.01634002079853,-8.504072095874118z" style="fill:rgb(83,212,212)"/><path d="M-56.03655113812988,-5.601664646232652L-52.77685653911382,-23.817505272398076L-54.84802448175792,-27.56478102813378z" style="fill:rgb(247,158,158)"/><path d="M-56.17431562753054,-29.681997976641913L-56.03655113812988,-5.601664646232652L-54.84802448175792,-27.56478102813378zM-60.45980215690554,-8.154649379819235L-59.20624682848278,-39.13726210974828L-61.01634002079853,-8.504072095874118z" style="fill:rgb(83,212,212)"/><path d="M-68.63132125337546,-15.417499736111145L-64.27215946973328,-9.229390650165833L-66.40231681432319,-12.957837610363041z" style="fill:rgb(24,55,146)"/><path d="M69.95890794968703,-99.42397227784375L74.38697461315758,-63.38414887174676L71.84430200151623,-96.80469942110615z" style="fill:rgb(83,212,212)"/><path d="M-56.08325721246569,-30.49330740892524L-59.68254357901458,-7.66664773392936L-57.55766668074327,-3.9243691752300376z" style="fill:rgb(247,158,158)"/><path d="M-61.76536387244937,-6.936425011281458L-66.40231681432319,-12.957837610363041L-64.27215946973328,-9.229390650165833z" style="fill:rgb(28,51,152)"/><path d="M-59.68254357901458,-7.66664773392936L-58.79223045820011,-36.64528382014494L-60.45980215690554,-8.154649379819235zM71.84430200151623,-96.80469942110615L75.54069825929925,-67.12938382847918L73.45502519152906,-94.02109948321173z" style="fill:rgb(83,212,212)"/><path d="M78.17689603879042,-80.79239185382457L75.8155138202238,-87.9990467962983L76.54932607563741,-84.7817816294499z" style="fill:rgb(246,166,149)"/><path d="M-54.39030973522144,-4.786343858044009L-51.228167573207195,-21.814560784998374L-53.29975043413783,-25.565405735372167z" style="fill:rgb(247,158,158)"/><path d="M-54.84802448175792,-27.56478102813378L-54.776671164770804,-4.949394467275916L-53.29975043413783,-25.565405735372167zM-58.686471571828676,-7.041263108412062L-58.1483711078011,-34.23204904996522L-59.68254357901458,-7.66664773392936z" style="fill:rgb(83,212,212)"/><path d="M76.54932607563741,-84.7817816294499L78.6085821846459,-77.45079451295537L78.17689603879042,-80.79239185382457z" style="fill:rgb(247,161,155)"/><path d="M-56.56274826923499,-3.2969855601347042L-57.275239176752656,-31.907650267469347L-58.686471571828676,-7.041263108412062zM-51.53385175514087,-23.69295572355933L-50.416541852928084,-0.24536229669113563L-49.46268295940327,-19.938190347325413z" style="fill:rgb(247,158,158)"/><path d="M59.20748274634395,-76.60329353133346L63.97548602435733,-44.45334163237602L57.18311387109234,-109.58105953623239z" style="fill:rgb(83,212,212)"/><path d="M-66.40231681432319,-12.957837610363041L-61.76536387244937,-6.936425011281458L-63.89426329156042,-10.670130589776354z" style="fill:rgb(28,51,152)"/><path d="M-54.104376829299284,-25.937934780694665L-57.470487821740846,-6.344047712058719L-55.34832332284128,-2.597346143648086z" style="fill:rgb(247,158,158)"/><path d="M73.45502519152906,-94.02109948321173L75.54069825929925,-67.12938382847918L74.78160084343779,-91.08249174713102zM74.78160084343779,-91.08249174713102L76.8933218051642,-74.4493386293492L75.8155138202238,-87.9990467962983zM-58.071981606281,-6.655454045920071L-57.275239176752656,-31.907650267469347L-58.686471571828676,-7.041263108412062zM-53.29975043413783,-25.565405735372167L-52.531235353898246,-4.001789106738428L-51.53385175514087,-23.69295572355933z" style="fill:rgb(83,212,212)"/><path d="M-58.98803967604992,-4.826345044883895L-63.89426329156042,-10.670130589776354L-61.76536387244937,-6.936425011281458z" style="fill:rgb(32,47,158)"/><path d="M75.8155138202238,-87.9990467962983L77.0926570796263,-77.99391768480048L76.54932607563741,-84.7817816294499z" style="fill:rgb(83,212,212)"/><path d="M78.6085821846459,-77.45079451295537L76.54932607563741,-84.7817816294499L76.97673444605039,-81.44252388016454z" style="fill:rgb(247,161,155)"/><path d="M-52.77685653911382,-23.817505272398076L-56.03655113812988,-5.601664646232652L-53.91640699673625,-1.8521229504623502zM-49.555680746899384,-21.9561320833684L-48.356694368072716,0.5640920653439364L-47.48576601749492,-18.197103428929047z" style="fill:rgb(247,158,158)"/><path d="M-56.17431562753054,-29.681997976641913L-58.071981606281,-6.655454045920071L-57.470487821740846,-6.344047712058719zM-56.03655113812988,-5.601664646232652L-56.17431562753054,-29.681997976641913L-57.470487821740846,-6.344047712058719zM-51.53385175514087,-23.69295572355933L-51.240170709521,-3.4569425520092327L-49.555680746899384,-21.9561320833684z" style="fill:rgb(83,212,212)"/><path d="M-63.89426329156042,-10.670130589776354L-58.98803967604992,-4.826345044883895L-61.114561436070204,-8.565740436223933z" style="fill:rgb(32,47,158)"/><path d="M-51.228167573207195,-21.814560784998374L-54.39030973522144,-4.786343858044009L-52.27258096036098,-1.0335559498178397z" style="fill:rgb(247,158,158)"/><path d="M78.6085821846459,-77.45079451295537L77.0926570796263,-77.99391768480048L78.72979990438785,-74.00052560947827z" style="fill:rgb(247,155,161)"/><path d="M76.54932607563741,-84.7817816294499L77.0926570796263,-77.99391768480048L76.97673444605039,-81.44252388016454z" style="fill:rgb(83,212,212)"/><path d="M77.0926570796263,-77.99391768480048L78.6085821846459,-77.45079451295537L76.97673444605039,-81.44252388016454z" style="fill:rgb(247,155,161)"/><path d="M-55.94897411553876,-2.9099460711845144L-61.114561436070204,-8.565740436223933L-58.98803967604992,-4.826345044883895z" style="fill:rgb(37,44,163)"/><path d="M-54.776671164770804,-4.949394467275916L-54.84802448175792,-27.56478102813378L-56.03655113812988,-5.601664646232652zM75.8155138202238,-87.9990467962983L76.8933218051642,-74.4493386293492L77.0926570796263,-77.99391768480048z" style="fill:rgb(83,212,212)"/><path d="M-48.20373276847541,-2.4324141773994423L-45.30377916872244,-16.599573054649163L-47.37159283934541,-20.363198172149144z" style="fill:rgb(247,158,158)"/><path d="M-49.555680746899384,-21.9561320833684L-48.20373276847541,-2.4324141773994423L-47.37159283934541,-20.363198172149144zM74.78160084343779,-91.08249174713102L76.37632687583614,-70.8229092385846L76.8933218051642,-74.4493386293492zM-53.29975043413783,-25.565405735372167L-54.776671164770804,-4.949394467275916L-54.39030973522144,-4.786343858044009zM-52.531235353898246,-4.001789106738428L-53.29975043413783,-25.565405735372167L-54.39030973522144,-4.786343858044009z" style="fill:rgb(83,212,212)"/><path d="M-61.114561436070204,-8.565740436223933L-55.94897411553876,-2.9099460711845144L-58.071981606281,-6.655454045920071z" style="fill:rgb(37,44,163)"/><path d="M-50.416541852928084,-0.24536229669113563L-51.53385175514087,-23.69295572355933L-52.531235353898246,-4.001789106738428z" style="fill:rgb(247,158,158)"/><path d="M78.72979990438785,-74.00052560947827L76.8933218051642,-74.4493386293492L78.53677725821088,-70.45497570907798zM76.8933218051642,-74.4493386293492L78.72979990438785,-74.00052560947827L77.0926570796263,-77.99391768480048z" style="fill:rgb(246,149,166)"/><path d="M-47.37159283934541,-20.363198172149144L-47.475367812046535,-2.1866556585788355L-44.98893487162106,-18.92193048860225z" style="fill:rgb(83,212,212)"/><path d="M-52.65831458578691,-1.1973641719353965L-58.071981606281,-6.655454045920071L-55.94897411553876,-2.9099460711845144z" style="fill:rgb(42,41,169)"/><path d="M71.84430200151623,-96.80469942110615L74.38697461315758,-63.38414887174676L75.54069825929925,-67.12938382847918z" style="fill:rgb(83,212,212)"/><path d="M-45.745399813354275,-1.73427208403449L-42.924072009622606,-15.153386721304386L-44.98893487162106,-18.92193048860225z" style="fill:rgb(247,158,158)"/><path d="M74.78160084343779,-91.08249174713102L75.54069825929925,-67.12938382847918L76.37632687583614,-70.8229092385846zM-51.240170709521,-3.4569425520092327L-51.53385175514087,-23.69295572355933L-52.531235353898246,-4.001789106738428zM69.95890794968703,-99.42397227784375L72.91722320862033,-59.603111111822834L74.38697461315758,-63.38414887174676z" style="fill:rgb(83,212,212)"/><path d="M-42.41605070888972,-17.639563672739467L-41.00593176684614,2.7042530464086885L-40.35498667567584,-13.865791481364335zM-48.356694368072716,0.5640920653439364L-49.555680746899384,-21.9561320833684L-50.467856377932705,-3.1963554938224616z" style="fill:rgb(247,158,158)"/><path d="M67.80923092350177,-101.87046864895163L71.1351146864905,-55.802638177912236L72.91722320862033,-59.603111111822834zM-49.555680746899384,-21.9561320833684L-51.240170709521,-3.4569425520092327L-50.467856377932705,-3.1963554938224616z" style="fill:rgb(83,212,212)"/><path d="M58.82025839660151,-105.6457035620853L61.380443097012865,-41.2049042580607L63.12191674964132,-37.23260226055201z" style="fill:rgb(247,158,158)"/><path d="M-58.071981606281,-6.655454045920071L-52.65831458578691,-1.1973641719353965L-54.776671164770804,-4.949394467275916z" style="fill:rgb(42,41,169)"/><path d="M-45.30377916872244,-16.599573054649163L-48.20373276847541,-2.4324141773994423L-46.09672548441338,1.3324214825634244z" style="fill:rgb(247,158,158)"/><path d="M65.40645075161973,-104.13657887124235L69.0459120979205,-51.99947392924551L71.1351146864905,-55.802638177912236z" style="fill:rgb(83,212,212)"/><path d="M78.53677725821088,-70.45497570907798L76.37632687583614,-70.8229092385846L78.02710038202731,-66.8282780846382z" style="fill:rgb(245,143,172)"/><path d="M-44.98893487162106,-18.92193048860225L-43.49650392504508,-1.1461892513390353L-42.41605070888972,-17.639563672739467z" style="fill:rgb(83,212,212)"/><path d="M76.37632687583614,-70.8229092385846L78.53677725821088,-70.45497570907798L76.8933218051642,-74.4493386293492z" style="fill:rgb(245,143,172)"/><path d="M62.76250051765105,-106.21556726882653L66.65653172375026,-48.21064248530105L69.0459120979205,-51.99947392924551zM-48.20373276847541,-2.4324141773994423L-49.555680746899384,-21.9561320833684L-50.467856377932705,-3.1963554938224616z" style="fill:rgb(83,212,212)"/><path d="M-49.12759857491726,0.30200568307534553L-54.776671164770804,-4.949394467275916L-52.65831458578691,-1.1973641719353965z" style="fill:rgb(48,39,174)"/><path d="M59.88992936502902,-108.10153952658537L63.97548602435733,-44.45334163237602L66.65653172375026,-48.21064248530105z" style="fill:rgb(83,212,212)"/><path d="M61.26253984791412,-41.05731078985817L60.94091867058667,-69.9715432703485L59.248782874379984,-73.9301962752658zM-42.924072009622606,-15.153386721304386L-45.745399813354275,-1.73427208403449L-43.64320954325126,2.0353056145225072z" style="fill:rgb(247,158,158)"/><path d="M59.248782874379984,-73.9301962752658L61.380443097012865,-41.2049042580607L59.20748274634395,-76.60329353133346z" style="fill:rgb(83,212,212)"/><path d="M-40.28144657984796,-0.5274284554419905L-37.60584115314743,-12.743435346907122L-39.66226470310897,-16.522731778984262z" style="fill:rgb(247,158,158)"/><path d="M-47.475367812046535,-2.1866556585788355L-47.37159283934541,-20.363198172149144L-48.20373276847541,-2.4324141773994423zM-42.41605070888972,-17.639563672739467L-40.28144657984796,-0.5274284554419905L-39.66226470310897,-16.522731778984262z" style="fill:rgb(83,212,212)"/><path d="M-54.776671164770804,-4.949394467275916L-49.12759857491726,0.30200568307534553L-51.240170709521,-3.4569425520092327z" style="fill:rgb(48,39,174)"/><path d="M78.02710038202731,-66.8282780846382L75.54069825929925,-67.12938382847918L77.19979903138672,-63.135193645620745zM75.54069825929925,-67.12938382847918L78.02710038202731,-66.8282780846382L76.37632687583614,-70.8229092385846z" style="fill:rgb(244,137,177)"/><path d="M60.9084256082716,-40.627091310818344L60.74525614941004,-67.22824991498514L59.04794529859415,-71.18757893253779z" style="fill:rgb(247,158,158)"/><path d="M-44.98893487162106,-18.92193048860225L-47.475367812046535,-2.1866556585788355L-45.745399813354275,-1.73427208403449z" style="fill:rgb(83,212,212)"/><path d="M-45.36970368980598,1.5795894788336817L-51.240170709521,-3.4569425520092327L-49.12759857491726,0.30200568307534553z" style="fill:rgb(54,37,179)"/><path d="M59.04794529859415,-71.18757893253779L61.01292915289699,-40.74485497978644L59.248782874379984,-73.9301962752658z" style="fill:rgb(83,212,212)"/><path d="M58.60389533733907,-68.38637641814222L62.06303914432947,-35.989646696598335L60.30713991151011,-64.42689386788669z" style="fill:rgb(247,158,158)"/><path d="M-39.66226470310897,-16.522731778984262L-39.319106940874796,-0.34221910721833426L-36.73785832936298,-15.577421348540376z" style="fill:rgb(83,212,212)"/><path d="M-37.29298340269886,-0.08107338106619637L-34.6869057286441,-11.792320316207615L-36.73785832936298,-15.577421348540376z" style="fill:rgb(247,158,158)"/><path d="M-43.49650392504508,-1.1461892513390353L-44.98893487162106,-18.92193048860225L-45.745399813354275,-1.73427208403449z" style="fill:rgb(83,212,212)"/><path d="M-41.00593176684614,2.7042530464086885L-42.41605070888972,-17.639563672739467L-43.102727797224695,-1.070404538899924zM-33.65405361039892,-14.80891835648065L-32.072301944295944,4.067924531304433L-31.609386333097156,-11.01774950909095z" style="fill:rgb(247,158,158)"/><path d="M58.60389533733907,-68.38637641814222L60.9084256082716,-40.627091310818344L59.04794529859415,-71.18757893253779z" style="fill:rgb(83,212,212)"/><path d="M-37.60584115314743,-12.743435346907122L-40.28144657984796,-0.5274284554419905L-38.19078984446797,3.252631127783977z" style="fill:rgb(247,158,158)"/><path d="M-51.240170709521,-3.4569425520092327L-45.36970368980598,1.5795894788336817L-47.475367812046535,-2.1866556585788355z" style="fill:rgb(54,37,179)"/><path d="M-42.41605070888972,-17.639563672739467L-43.49650392504508,-1.1461892513390353L-43.102727797224695,-1.070404538899924z" style="fill:rgb(83,212,212)"/><path d="M77.19979903138672,-63.135193645620745L74.38697461315758,-63.38414887174676L76.05538827689283,-59.391110897084744z" style="fill:rgb(242,131,182)"/><path d="M-27.05756056109342,-13.819711889731522L-25.149502938184817,-5.002413144626841L-25.02781598557524,-10.01569447193315z" style="fill:rgb(247,158,158)"/><path d="M74.38697461315758,-63.38414887174676L77.19979903138672,-63.135193645620745L75.54069825929925,-67.12938382847918z" style="fill:rgb(242,131,182)"/><path d="M-36.73785832936298,-15.577421348540376L-34.959960485435346,0.2196289996755244L-33.65405361039892,-14.80891835648065z" style="fill:rgb(83,212,212)"/><path d="M-41.39885418761332,2.6277138610762876L-47.475367812046535,-2.1866556585788355L-45.36970368980598,1.5795894788336817z" style="fill:rgb(60,35,184)"/><path d="M-40.28144657984796,-0.5274284554419905L-42.41605070888972,-17.639563672739467L-43.102727797224695,-1.070404538899924z" style="fill:rgb(83,212,212)"/><path d="M59.49035793122438,-39.02910618052827L59.62654743335371,-61.57882995877105L57.9166233431446,-65.53793996984837z" style="fill:rgb(247,158,158)"/><path d="M57.9166233431446,-65.53793996984837L60.31649032329374,-39.96005383632392L58.60389533733907,-68.38637641814222z" style="fill:rgb(83,212,212)"/><path d="M-30.422964886851325,-14.221765938092501L-28.790979108531932,4.303433334201068L-28.385376232282105,-10.424284802915336zM-34.6869057286441,-11.792320316207615L-37.29298340269886,-0.08107338106619637L-35.209135068181126,3.704692467896081z" style="fill:rgb(247,158,158)"/><path d="M-39.319106940874796,-0.34221910721833426L-39.66226470310897,-16.522731778984262L-40.28144657984796,-0.5274284554419905zM-27.599833538682386,-13.88449535133657L-27.189594453312907,-8.806768491432104L-27.05756056109342,-13.819711889731522z" style="fill:rgb(83,212,212)"/><path d="M58.43260898874736,-37.83715617263013L58.70456695216936,-58.69582060275314L56.98723451891713,-62.65402782919484z" style="fill:rgb(247,158,158)"/><path d="M56.98723451891713,-62.65402782919484L59.49035793122438,-39.02910618052827L57.9166233431446,-65.53793996984837zM-33.65405361039892,-14.80891835648065L-30.859274975125025,0.5054191874093523L-30.422964886851325,-14.221765938092501z" style="fill:rgb(83,212,212)"/><path d="M-47.475367812046535,-2.1866556585788355L-41.39885418761332,2.6277138610762876L-43.49650392504508,-1.1461892513390353z" style="fill:rgb(60,35,184)"/><path d="M-23.66054410338001,-9.728993186511234L-21.550448567905843,-9.79492199832361L-23.57161102586427,-13.605677550534548zM-25.149502938184817,-5.002413144626841L-27.05756056109342,-13.819711889731522L-27.189594453312907,-8.806768491432104zM-21.550448567905843,-9.79492199832361L-23.66054410338001,-9.728993186511234L-21.631461268211837,-5.917966373318775z" style="fill:rgb(247,158,158)"/><path d="M76.05538827689283,-59.391110897084744L72.91722320862033,-59.603111111822834L74.59592005815094,-55.611934078655274z" style="fill:rgb(240,125,187)"/><path d="M55.817962599778596,-59.74672258526174L58.9042992868384,-32.48717802754248L57.54341069857751,-55.78993485129128z" style="fill:rgb(247,158,158)"/><path d="M-25.927272430365473,4.372551482462637L-25.698323045485647,-4.859585113951053L-25.568823094872368,-10.081531612795633z" style="fill:rgb(255,127,127)"/><path d="M72.91722320862033,-59.603111111822834L76.05538827689283,-59.391110897084744L74.38697461315758,-63.38414887174676z" style="fill:rgb(240,125,187)"/><path d="M-27.05756056109342,-13.819711889731522L-23.66054410338001,-9.728993186511234L-23.57161102586427,-13.605677550534548zM-36.73785832936298,-15.577421348540376L-39.319106940874796,-0.34221910721833426L-37.29298340269886,-0.08107338106619637zM-27.189594453312907,-8.806768491432104L-27.599833538682386,-13.88449535133657L-27.740128150587175,-8.662900697332306z" style="fill:rgb(83,212,212)"/><path d="M-27.98817452771827,0.5690834479107384L-25.568823094872368,-10.081531612795633L-27.599833538682386,-13.88449535133657zM-17.967751491528876,-9.764044695221289L-20.03612811786075,-10.676140015132559L-18.0183747921714,-6.858254955257122z" style="fill:rgb(247,158,158)"/><path d="M-30.422964886851325,-14.221765938092501L-30.43702984748647,0.5348468173168871L-27.599833538682386,-13.88449535133657zM-23.66054410338001,-9.728993186511234L-27.05756056109342,-13.819711889731522L-27.189594453312907,-8.806768491432104z" style="fill:rgb(83,212,212)"/><path d="M-20.03612811786075,-10.676140015132559L-17.967751491528876,-9.764044695221289L-19.979631444277054,-13.581716370874746z" style="fill:rgb(247,158,158)"/><path d="M-39.319106940874796,-0.34221910721833426L-41.39885418761332,2.6277138610762876L-37.23055345901147,3.4396813264279236z" style="fill:rgb(66,34,189)"/><path d="M55.817962599778596,-59.74672258526174L57.780605006179435,-37.102429704918926L56.98723451891713,-62.65402782919484zM-34.959960485435346,0.2196289996755244L-36.73785832936298,-15.577421348540376L-37.29298340269886,-0.08107338106619637zM-23.66054410338001,-9.728993186511234L-19.979631444277054,-13.581716370874746L-23.57161102586427,-13.605677550534548z" style="fill:rgb(83,212,212)"/><path d="M54.41219577339534,-56.82837342926334L57.39254516799515,-30.940637772049747L56.14644118777364,-52.87352694646765z" style="fill:rgb(247,158,158)"/><path d="M-41.39885418761332,2.6277138610762876L-39.319106940874796,-0.34221910721833426L-43.49650392504508,-1.1461892513390353z" style="fill:rgb(66,34,189)"/><path d="M-32.072301944295944,4.067924531304433L-33.65405361039892,-14.80891835648065L-34.148714471428136,0.2761672893120102zM60.94091867058667,-69.9715432703485L61.26253984791412,-41.05731078985817L63.0045886018544,-37.08521684504811zM-14.294871238714302,-9.924244598577388L-16.33018928469868,-11.644590065671109L-14.324045604211822,-7.8196866041830155zM-16.33018928469868,-11.644590065671109L-14.294871238714302,-9.924244598577388L-16.29680793830797,-13.748984843182965z" style="fill:rgb(247,158,158)"/><path d="M74.59592005815094,-55.611934078655274L71.1351146864905,-55.802638177912236L72.82501433054334,-51.81402367063096z" style="fill:rgb(237,120,191)"/><path d="M-12.53892863304488,-14.107720019121924L-10.562663926533533,-8.798568541052136L-10.547549069580025,-10.275785890958112z" style="fill:rgb(247,158,158)"/><path d="M63.97548602435733,-44.45334163237602L59.20748274634395,-76.60329353133346L61.380443097012865,-41.2049042580607zM-33.65405361039892,-14.80891835648065L-34.959960485435346,0.2196289996755244L-34.148714471428136,0.2761672893120102z" style="fill:rgb(83,212,212)"/><path d="M71.1351146864905,-55.802638177912236L74.59592005815094,-55.611934078655274L72.91722320862033,-59.603111111822834z" style="fill:rgb(237,120,191)"/><path d="M54.41219577339534,-56.82837342926334L57.142917831880425,-36.451867531008965L55.817962599778596,-59.74672258526174zM-19.979631444277054,-13.581716370874746L-23.66054410338001,-9.728993186511234L-20.03612811786075,-10.676140015132559z" style="fill:rgb(83,212,212)"/><path d="M60.74525614941004,-67.22824991498514L60.9084256082716,-40.627091310818344L62.6521911690881,-36.65562499267045z" style="fill:rgb(247,158,158)"/><path d="M-19.979631444277054,-13.581716370874746L-16.33018928469868,-11.644590065671109L-16.29680793830797,-13.748984843182965zM-16.33018928469868,-11.644590065671109L-19.979631444277054,-13.581716370874746L-20.03612811786075,-10.676140015132559zM-30.859274975125025,0.5054191874093523L-33.65405361039892,-14.80891835648065L-34.148714471428136,0.2761672893120102z" style="fill:rgb(83,212,212)"/><path d="M-28.790979108531932,4.303433334201068L-30.422964886851325,-14.221765938092501L-30.859274975125025,0.5054191874093523z" style="fill:rgb(247,158,158)"/><path d="M-34.959960485435346,0.2196289996755244L-37.23055345901147,3.4396813264279236L-32.881553146831955,4.009842557707548z" style="fill:rgb(73,33,193)"/><path d="M-25.568823094872368,-10.081531612795633L-27.98817452771827,0.5690834479107384L-25.927272430365473,4.372551482462637zM-6.742041212730318,-10.81799545129575L-8.731022754802238,-13.630433324111541L-6.748760870033523,-9.79111829727893z" style="fill:rgb(247,158,158)"/><path d="M-37.23055345901147,3.4396813264279236L-34.959960485435346,0.2196289996755244L-39.319106940874796,-0.34221910721833426z" style="fill:rgb(73,33,193)"/><path d="M53.883580723657644,-33.164642876346655L54.51817680146877,-49.95916183572293L52.774482284119834,-53.911557555188075z" style="fill:rgb(247,158,158)"/><path d="M61.380443097012865,-41.2049042580607L59.248782874379984,-73.9301962752658L61.26253984791412,-41.05731078985817z" style="fill:rgb(83,212,212)"/><path d="M-10.562663926533533,-8.798568541052136L-12.53892863304488,-14.107720019121924L-12.556962746120245,-12.63062444047921z" style="fill:rgb(247,158,158)"/><path d="M59.248782874379984,-73.9301962752658L61.01292915289699,-40.74485497978644L61.26253984791412,-41.05731078985817zM-16.29680793830797,-13.748984843182965L-12.556962746120245,-12.63062444047921L-12.53892863304488,-14.107720019121924zM-12.556962746120245,-12.63062444047921L-16.29680793830797,-13.748984843182965L-16.33018928469868,-11.644590065671109zM52.774482284119834,-53.911557555188075L54.29179086179167,-33.54317125919592L54.41219577339534,-56.82837342926334zM-30.43702984748647,0.5348468173168871L-30.422964886851325,-14.221765938092501L-30.859274975125025,0.5054191874093523z" style="fill:rgb(83,212,212)"/><path d="M-8.731022754802238,-13.630433324111541L-6.742041212730318,-10.81799545129575L-8.72229768375496,-14.657220087662553zM59.62654743335371,-61.57882995877105L59.49035793122438,-39.02910618052827L61.240793774567706,-35.06018383383702zM62.06303914432947,-35.989646696598335L58.60389533733907,-68.38637641814222L60.31649032329374,-39.96005383632392zM-2.895027364087266,-11.549252900021054L-4.867232620205207,-14.640134437462152L-2.897152505402921,-10.79348147997773z" style="fill:rgb(247,158,158)"/><path d="M72.82501433054334,-51.81402367063096L69.0459120979205,-51.99947392924551L70.7479275307603,-48.01411167765541z" style="fill:rgb(234,114,195)"/><path d="M61.01292915289699,-40.74485497978644L59.04794529859415,-71.18757893253779L60.9084256082716,-40.627091310818344z" style="fill:rgb(83,212,212)"/><path d="M-25.698323045485647,-4.859585113951053L26.137506753811103,-22.742412540638476L-27.740128150587175,-8.662900697332306z" style="fill:rgb(127,37,217)"/><path d="M69.0459120979205,-51.99947392924551L72.82501433054334,-51.81402367063096L71.1351146864905,-55.802638177912236z" style="fill:rgb(234,114,195)"/><path d="M51.921615329375555,-31.345339952270923L52.6642877515575,-47.059538693374456L50.91052686147853,-51.00898612349826z" style="fill:rgb(247,158,158)"/><path d="M-12.53892863304488,-14.107720019121924L-8.731022754802238,-13.630433324111541L-8.72229768375496,-14.657220087662553zM-8.731022754802238,-13.630433324111541L-12.53892863304488,-14.107720019121924L-12.556962746120245,-12.63062444047921z" style="fill:rgb(83,212,212)"/><path d="M48.82719282238864,-48.133456829432994L51.5426753162096,-25.446064965798296L50.591598597460646,-44.187440295458224zM-0.9800508644738856,-16.320957311339928L0.9771118489696677,-11.801740735782003L0.9764803447074162,-12.466984607661427z" style="fill:rgb(247,158,158)"/><path d="M-27.599833538682386,-13.88449535133657L-30.43702984748647,0.5348468173168871L-27.98817452771827,0.5690834479107384zM50.91052686147853,-51.00898612349826L53.883580723657644,-33.164642876346655L52.774482284119834,-53.911557555188075z" style="fill:rgb(83,212,212)"/><path d="M-4.867232620205207,-14.640134437462152L-2.895027364087266,-11.549252900021054L-4.863649325497248,-15.395833599147927z" style="fill:rgb(247,158,158)"/><path d="M60.9084256082716,-40.627091310818344L58.60389533733907,-68.38637641814222L60.31649032329374,-39.96005383632392z" style="fill:rgb(83,212,212)"/><path d="M58.70456695216936,-58.69582060275314L58.43260898874736,-37.83715617263013L60.18802594958167,-33.870131429571146z" style="fill:rgb(247,158,158)"/><path d="M-30.43702984748647,0.5348468173168871L-32.881553146831955,4.009842557707548L-28.369779114341394,4.333663821795086z" style="fill:rgb(79,32,198)"/><path d="M2.9111914708650453,-17.429037624592794L4.858807600280971,-12.81193300983873L4.855236699652018,-13.567669570870246z" style="fill:rgb(247,158,158)"/><path d="M-4.867232620205207,-14.640134437462152L-8.72229768375496,-14.657220087662553L-8.731022754802238,-13.630433324111541z" style="fill:rgb(83,212,212)"/><path d="M-32.881553146831955,4.009842557707548L-30.43702984748647,0.5348468173168871L-34.959960485435346,0.2196289996755244z" style="fill:rgb(79,32,198)"/><path d="M-8.72229768375496,-14.657220087662553L-4.867232620205207,-14.640134437462152L-4.863649325497248,-15.395833599147927zM60.31649032329374,-39.96005383632392L57.9166233431446,-65.53793996984837L59.49035793122438,-39.02910618052827z" style="fill:rgb(83,212,212)"/><path d="M0.9771118489696677,-11.801740735782003L-0.9800508644738856,-16.320957311339928L-0.9806869977577958,-15.65578184903258z" style="fill:rgb(247,158,158)"/><path d="M48.82719282238864,-48.133456829432994L50.561273849225344,-30.083917953797805L50.91052686147853,-51.00898612349826z" style="fill:rgb(83,212,212)"/><path d="M70.7479275307603,-48.01411167765541L66.65653172375026,-48.21064248530105L68.37150496196443,-44.229205967416384z" style="fill:rgb(230,108,199)"/><path d="M-0.9806869977577958,-15.65578184903258L-4.863649325497248,-15.395833599147927L-4.867232620205207,-14.640134437462152z" style="fill:rgb(83,212,212)"/><path d="M8.723863682148298,-14.846848165638777L6.799459178644137,-17.688918679025004L8.73259189566688,-13.820067513245013z" style="fill:rgb(247,158,158)"/><path d="M-4.863649325497248,-15.395833599147927L-0.9806869977577958,-15.65578184903258L-0.9800508644738856,-16.320957311339928z" style="fill:rgb(83,212,212)"/><path d="M66.65653172375026,-48.21064248530105L70.7479275307603,-48.01411167765541L69.0459120979205,-51.99947392924551z" style="fill:rgb(230,108,199)"/><path d="M-27.98817452771827,0.5690834479107384L-28.369779114341394,4.333663821795086L-25.927272430365473,4.372551482462637z" style="fill:rgb(86,32,201)"/><path d="M4.858807600280971,-12.81193300983873L2.9111914708650453,-17.429037624592794L2.9133404208348628,-16.67338450668284z" style="fill:rgb(247,158,158)"/><path d="M59.49035793122438,-39.02910618052827L56.98723451891713,-62.65402782919484L58.43260898874736,-37.83715617263013z" style="fill:rgb(83,212,212)"/><path d="M47.369426661131975,-27.386859051980164L48.30807404558363,-41.35565349811682L46.53248786443841,-45.29777435599115z" style="fill:rgb(247,158,158)"/><path d="M26.137506753811103,-22.742412540638476L-25.698323045485647,-4.859585113951053L28.008859283989526,-18.836624283570224z" style="fill:rgb(127,37,217)"/><path d="M58.9042992868384,-32.48717802754248L55.817962599778596,-59.74672258526174L57.142917831880425,-36.451867531008965zM12.564958407176606,-16.299142927262253L10.662221119339218,-18.698351961154145L12.583067526677915,-14.82213496774968z" style="fill:rgb(247,158,158)"/><path d="M56.98723451891713,-62.65402782919484L57.780605006179435,-37.102429704918926L58.43260898874736,-37.83715617263013z" style="fill:rgb(83,212,212)"/><path d="M6.799459178644137,-17.688918679025004L8.723863682148298,-14.846848165638777L6.792638239744484,-18.715580413846034z" style="fill:rgb(247,158,158)"/><path d="M2.9133404208348628,-16.67338450668284L-0.9800508644738856,-16.320957311339928L-0.9806869977577958,-15.65578184903258zM46.53248786443841,-45.29777435599115L49.74849934657824,-29.397137610723746L48.82719282238864,-48.133456829432994zM-0.9800508644738856,-16.320957311339928L2.9133404208348628,-16.67338450668284L2.9111914708650453,-17.429037624592794z" style="fill:rgb(83,212,212)"/><path d="M-28.369779114341394,4.333663821795086L-27.98817452771827,0.5690834479107384L-30.43702984748647,0.5348468173168871z" style="fill:rgb(86,32,201)"/><path d="M16.36119474775308,-17.91828321303807L14.486184005505155,-19.69764404181359L16.39484065919992,-15.814131053045816zM10.662221119339218,-18.698351961154145L12.564958407176606,-16.299142927262253L10.64682019125509,-20.175171989266907zM41.346500530236035,-39.796731780066054L43.856570420814336,-19.304959476369685L43.145862121644136,-35.863711814085725zM44.79271526915288,-25.343726008970833L45.82278030466639,-38.57688995055951L44.035525221999066,-42.51467090984773z" style="fill:rgb(247,158,158)"/><path d="M57.780605006179435,-37.102429704918926L55.817962599778596,-59.74672258526174L57.142917831880425,-36.451867531008965zM2.9111914708650453,-17.429037624592794L6.799459178644137,-17.688918679025004L6.792638239744484,-18.715580413846034zM6.799459178644137,-17.688918679025004L2.9111914708650453,-17.429037624592794L2.9133404208348628,-16.67338450668284z" style="fill:rgb(83,212,212)"/><path d="M57.39254516799515,-30.940637772049747L54.41219577339534,-56.82837342926334L55.624271378302495,-34.902557446669235zM54.51817680146877,-49.95916183572293L53.883580723657644,-33.164642876346655L55.65969995999823,-29.205911303168318zM14.486184005505155,-19.69764404181359L16.36119474775308,-17.91828321303807L14.45634612214855,-21.801509531119287z" style="fill:rgb(247,158,158)"/><path d="M68.37150496196443,-44.229205967416384L63.97548602435733,-44.45334163237602L65.70423179637396,-40.47648318251249z" style="fill:rgb(226,102,203)"/><path d="M20.095432910214196,-19.69713735200993L18.255972569320647,-20.68278069002657L20.152587360486102,-16.792067473825547z" style="fill:rgb(247,158,158)"/><path d="M44.035525221999066,-42.51467090984773L46.605242306420344,-26.741135053249383L46.53248786443841,-45.29777435599115z" style="fill:rgb(83,212,212)"/><path d="M18.255972569320647,-20.68278069002657L20.095432910214196,-19.69713735200993L18.204007279733204,-23.587425210865074z" style="fill:rgb(247,158,158)"/><path d="M6.792638239744484,-18.715580413846034L10.662221119339218,-18.698351961154145L10.64682019125509,-20.175171989266907z" style="fill:rgb(83,212,212)"/><path d="M63.97548602435733,-44.45334163237602L68.37150496196443,-44.229205967416384L66.65653172375026,-48.21064248530105z" style="fill:rgb(226,102,203)"/><path d="M21.956347068320003,-21.649775484554933L23.750822932271404,-21.62776202500888L21.87288733580518,-25.524940442474957z" style="fill:rgb(247,158,158)"/><path d="M10.662221119339218,-18.698351961154145L6.792638239744484,-18.715580413846034L6.799459178644137,-17.688918679025004z" style="fill:rgb(83,212,212)"/><path d="M23.750822932271404,-21.62776202500888L21.956347068320003,-21.649775484554933L23.841116012918448,-17.751988175012023zM25.57226665628294,-22.59470115141545L27.310912148934843,-23.701435799636087L25.44646448487858,-27.60529872397285zM26.137506753811103,-22.742412540638476L27.865840318585786,-24.05659547427952L26.003554191822637,-27.96149567946149z" style="fill:rgb(247,158,158)"/><path d="M57.142917831880425,-36.451867531008965L54.41219577339534,-56.82837342926334L55.624271378302495,-34.902557446669235z" style="fill:rgb(83,212,212)"/><path d="M52.6642877515575,-47.059538693374456L51.921615329375555,-31.345339952270923L53.70635038138043,-27.390234142973103z" style="fill:rgb(247,158,158)"/><path d="M10.64682019125509,-20.175171989266907L14.486184005505155,-19.69764404181359L14.45634612214855,-21.801509531119287z" style="fill:rgb(83,212,212)"/><path d="M27.310912148934843,-23.701435799636087L25.57226665628294,-22.59470115141545L27.44543634397938,-18.689996837971922z" style="fill:rgb(247,158,158)"/><path d="M54.41219577339534,-56.82837342926334L54.29179086179167,-33.54317125919592L55.624271378302495,-34.902557446669235z" style="fill:rgb(83,212,212)"/><path d="M27.865840318585786,-24.05659547427952L26.137506753811103,-22.742412540638476L28.008859283989526,-18.836624283570224z" style="fill:rgb(247,158,158)"/><path d="M14.486184005505155,-19.69764404181359L10.64682019125509,-20.175171989266907L10.662221119339218,-18.698351961154145zM41.346500530236035,-39.796731780066054L42.44123221933421,-23.53079478794405L44.035525221999066,-42.51467090984773zM14.45634612214855,-21.801509531119287L18.255972569320647,-20.68278069002657L18.204007279733204,-23.587425210865074z" style="fill:rgb(83,212,212)"/><path d="M39.08921744117388,-21.172628089383L40.28849554709555,-33.22846660905412L38.47664430369687,-37.15633004989465z" style="fill:rgb(247,158,158)"/><path d="M18.204007279733204,-23.587425210865074L21.956347068320003,-21.649775484554933L21.87288733580518,-25.524940442474957zM25.44646448487858,-27.60529872397285L26.137506753811103,-22.742412540638476L26.003554191822637,-27.96149567946149zM21.87288733580518,-25.524940442474957L25.57226665628294,-22.59470115141545L25.44646448487858,-27.60529872397285zM18.255972569320647,-20.68278069002657L14.45634612214855,-21.801509531119287L14.486184005505155,-19.69764404181359zM54.29179086179167,-33.54317125919592L52.774482284119834,-53.911557555188075L53.883580723657644,-33.164642876346655z" style="fill:rgb(83,212,212)"/><path d="M65.70423179637396,-40.47648318251249L61.01292915289699,-40.74485497978644L62.756203494687384,-36.77320183896018z" style="fill:rgb(222,96,207)"/><path d="M28.908712132747837,-29.81902975493372L31.20583397018981,-11.185638093266688L30.759739880888475,-25.908722920259255z" style="fill:rgb(247,158,158)"/><path d="M38.47664430369687,-37.15633004989465L42.03009667413297,-23.24155857951631L41.346500530236035,-39.796731780066054z" style="fill:rgb(83,212,212)"/><path d="M35.98343719507044,-19.118726542989506L37.26283021842584,-30.683184176085774L35.438163893371,-34.60552322146828z" style="fill:rgb(247,158,158)"/><path d="M61.01292915289699,-40.74485497978644L65.70423179637396,-40.47648318251249L63.97548602435733,-44.45334163237602z" style="fill:rgb(222,96,207)"/><path d="M21.956347068320003,-21.649775484554933L18.204007279733204,-23.587425210865074L18.255972569320647,-20.68278069002657z" style="fill:rgb(83,212,212)"/><path d="M32.72603146027256,-17.078723815894033L34.08194024994532,-28.239534964918118L32.244194053030284,-32.156011394990614zM48.30807404558363,-41.35565349811682L47.369426661131975,-27.386859051980164L49.17374072365896,-23.440226643784815z" style="fill:rgb(247,158,158)"/><path d="M53.883580723657644,-33.164642876346655L50.91052686147853,-51.00898612349826L51.921615329375555,-31.345339952270923zM35.438163893371,-34.60552322146828L38.087996373098136,-20.468261837124064L38.47664430369687,-37.15633004989465z" style="fill:rgb(83,212,212)"/><path d="M51.5426753162096,-25.446064965798296L48.82719282238864,-48.133456829432994L49.74849934657824,-29.397137610723746z" style="fill:rgb(247,158,158)"/><path d="M25.57226665628294,-22.59470115141545L21.87288733580518,-25.524940442474957L21.956347068320003,-21.649775484554933zM50.91052686147853,-51.00898612349826L50.561273849225344,-30.083917953797805L51.921615329375555,-31.345339952270923zM26.137506753811103,-22.742412540638476L25.44646448487858,-27.60529872397285L25.57226665628294,-22.59470115141545zM32.244194053030284,-32.156011394990614L33.5654114301079,-17.568182004914835L35.438163893371,-34.60552322146828z" style="fill:rgb(83,212,212)"/><path d="M45.82278030466639,-38.57688995055951L44.79271526915288,-25.343726008970833L46.60779102860854,-21.40192678148145z" style="fill:rgb(247,158,158)"/><path d="M62.756203494687384,-36.77320183896018L57.780605006179435,-37.102429704918926L59.539094793797354,-33.1365796489598z" style="fill:rgb(217,91,210)"/><path d="M50.561273849225344,-30.083917953797805L48.82719282238864,-48.133456829432994L49.74849934657824,-29.397137610723746zM28.908712132747837,-29.81902975493372L32.72603146027256,-17.078723815894033L32.244194053030284,-32.156011394990614z" style="fill:rgb(83,212,212)"/><path d="M57.780605006179435,-37.102429704918926L62.756203494687384,-36.77320183896018L61.01292915289699,-40.74485497978644z" style="fill:rgb(217,91,210)"/><path d="M26.003554191822637,-27.96149567946149L28.89434260486266,-14.844385529164114L28.908712132747837,-29.81902975493372zM49.74849934657824,-29.397137610723746L46.53248786443841,-45.29777435599115L47.369426661131975,-27.386859051980164zM46.53248786443841,-45.29777435599115L46.605242306420344,-26.741135053249383L47.369426661131975,-27.386859051980164z" style="fill:rgb(83,212,212)"/><path d="M40.28849554709555,-33.22846660905412L39.08921744117388,-21.172628089383L40.92754186952714,-17.241586934848947z" style="fill:rgb(247,158,158)"/><path d="M59.539094793797354,-33.1365796489598L54.29179086179167,-33.54317125919592L56.06611889444259,-29.5836888379654z" style="fill:rgb(212,85,213)"/><path d="M43.856570420814336,-19.304959476369685L41.346500530236035,-39.796731780066054L42.03009667413297,-23.24155857951631zM37.26283021842584,-30.683184176085774L35.98343719507044,-19.118726542989506L37.834057165312835,-15.193572248180155z" style="fill:rgb(247,158,158)"/><path d="M46.605242306420344,-26.741135053249383L44.035525221999066,-42.51467090984773L44.79271526915288,-25.343726008970833z" style="fill:rgb(83,212,212)"/><path d="M54.29179086179167,-33.54317125919592L59.539094793797354,-33.1365796489598L57.780605006179435,-37.102429704918926z" style="fill:rgb(212,85,213)"/><path d="M44.035525221999066,-42.51467090984773L42.44123221933421,-23.53079478794405L44.79271526915288,-25.343726008970833z" style="fill:rgb(83,212,212)"/><path d="M34.08194024994532,-28.239534964918118L32.72603146027256,-17.078723815894033L34.5893543913663,-13.159753655828956z" style="fill:rgb(247,158,158)"/><path d="M42.44123221933421,-23.53079478794405L41.346500530236035,-39.796731780066054L42.03009667413297,-23.24155857951631z" style="fill:rgb(83,212,212)"/><path d="M56.06611889444259,-29.5836888379654L50.561273849225344,-30.083917953797805L52.35198933157075,-26.131330942375307z" style="fill:rgb(206,80,215)"/><path d="M42.03009667413297,-23.24155857951631L38.47664430369687,-37.15633004989465L39.08921744117388,-21.172628089383zM38.47664430369687,-37.15633004989465L38.087996373098136,-20.468261837124064L39.08921744117388,-21.172628089383z" style="fill:rgb(83,212,212)"/><path d="M50.561273849225344,-30.083917953797805L56.06611889444259,-29.5836888379654L54.29179086179167,-33.54317125919592z" style="fill:rgb(206,80,215)"/><path d="M31.20583397018981,-11.185638093266688L28.908712132747837,-29.81902975493372L29.329519802775884,-15.09814560436465z" style="fill:rgb(247,158,158)"/><path d="M38.087996373098136,-20.468261837124064L35.438163893371,-34.60552322146828L35.98343719507044,-19.118726542989506zM35.438163893371,-34.60552322146828L33.5654114301079,-17.568182004914835L35.98343719507044,-19.118726542989506z" style="fill:rgb(83,212,212)"/><path d="M52.35198933157075,-26.131330942375307L46.605242306420344,-26.741135053249383L48.412815641999835,-22.79593127718734z" style="fill:rgb(200,75,217)"/><path d="M33.5654114301079,-17.568182004914835L32.244194053030284,-32.156011394990614L32.72603146027256,-17.078723815894033zM32.72603146027256,-17.078723815894033L28.908712132747837,-29.81902975493372L29.329519802775884,-15.09814560436465zM28.908712132747837,-29.81902975493372L28.89434260486266,-14.844385529164114L29.329519802775884,-15.09814560436465z" style="fill:rgb(83,212,212)"/><path d="M46.605242306420344,-26.741135053249383L52.35198933157075,-26.131330942375307L50.561273849225344,-30.083917953797805z" style="fill:rgb(200,75,217)"/><path d="M28.89434260486266,-14.844385529164114L26.003554191822637,-27.96149567946149L26.374384552223678,-13.513136731868212z" style="fill:rgb(83,212,212)"/><path d="M48.412815641999835,-22.79593127718734L42.44123221933421,-23.53079478794405L44.266050155646234,-19.593419330227682z" style="fill:rgb(194,70,219)"/><path d="M42.44123221933421,-23.53079478794405L39.93035800081907,-16.53911474219503L44.266050155646234,-19.593419330227682z" style="fill:rgb(188,65,220)"/><path d="M42.44123221933421,-23.53079478794405L48.412815641999835,-22.79593127718734L46.605242306420344,-26.741135053249383z" style="fill:rgb(194,70,219)"/><path d="M38.087996373098136,-20.468261837124064L35.4255247028549,-13.647616392866022L39.93035800081907,-16.53911474219503z" style="fill:rgb(181,61,221)"/><path d="M33.5654114301079,-17.568182004914835L30.77232167732563,-10.932706158423448L35.4255247028549,-13.647616392866022z" style="fill:rgb(175,57,222)"/><path d="M28.89434260486266,-14.844385529164114L28.26175671971541,-9.606258722686304L30.77232167732563,-10.932706158423448z" style="fill:rgb(168,53,222)"/><path d="M39.93035800081907,-16.53911474219503L42.44123221933421,-23.53079478794405L38.087996373098136,-20.468261837124064z" style="fill:rgb(188,65,220)"/><path d="M35.4255247028549,-13.647616392866022L38.087996373098136,-20.468261837124064L33.5654114301079,-17.568182004914835z" style="fill:rgb(181,61,221)"/><path d="M30.77232167732563,-10.932706158423448L33.5654114301079,-17.568182004914835L28.89434260486266,-14.844385529164114z" style="fill:rgb(175,57,222)"/><path d="M28.26175671971541,-9.606258722686304L28.89434260486266,-14.844385529164114L26.374384552223678,-13.513136731868212z" style="fill:rgb(168,53,222)"/><path d="M-31.84705168303223,144.1917963415686L26.137506753811103,-22.742412540638476L-27.740128150587175,-8.662900697332306z" style="fill:rgb(83,212,212)"/><path d="M26.137506753811103,-22.742412540638476L32.20175313489946,134.19751769002704L28.008859283989526,-18.836624283570224z" style="fill:rgb(247,158,158)"/><path d="M26.137506753811103,-22.742412540638476L-31.84705168303223,144.1917963415686L30.066840021337445,130.35298923897898z" style="fill:rgb(83,212,212)"/><path d="M32.20175313489946,134.19751769002704L26.137506753811103,-22.742412540638476L30.066840021337445,130.35298923897898z" style="fill:rgb(247,158,158)"/><path d="M-29.487147475478423,147.92066153729124L30.066840021337445,130.35298923897898L-31.84705168303223,144.1917963415686zM30.066840021337445,130.35298923897898L-29.487147475478423,147.92066153729124L32.20175313489946,134.19751769002704z" style="fill:rgb(127,37,217)"/></svg>
